<?xml version="1.0" encoding="utf-8"?>
<!-- Generator: Adobe Illustrator 23.0.1, SVG Export Plug-In . SVG Version: 6.00 Build 0)  -->
<svg version="1.1" id="Clients_Logo" xmlns="http://www.w3.org/2000/svg" xmlns:xlink="http://www.w3.org/1999/xlink" x="0px"
	 y="0px" viewBox="0 0 400 400" style="enable-background:new 0 0 400 400;" xml:space="preserve">
<style type="text/css">
	.st0{fill-rule:evenodd;clip-rule:evenodd;fill:#101111;}
</style>
<g id="Big_Green_Egg">
	<path class="st0" d="M44.9,171.9c8-1.9,11.9,6.3,4.2,8C40.9,181.8,37.4,173.7,44.9,171.9z M57.3,216.9l-19.4,0.1
		c0-3.1,2.8-0.6,3.9-5.5c0.7-2.8,0.4-14.3,0.4-17.9c0-3.7-0.1-4.8-3.8-5.3l0-1c0.4-0.9-0.1-0.5,1.5-0.7l13.3-2
		c-0.3,6.2-0.2,12.3-0.2,18.5c0,2.7-0.1,6.2,0.5,8.7C54.5,216.4,57.2,213.6,57.3,216.9z M75.4,203.6c-8.3,2.5-9.3-14.8-3-16.9
		C81,183.8,81.4,201.8,75.4,203.6z M82.8,221.6c-1.2,3.4-5.2,4.6-9.6,4.3c-4.1-0.2-7.6-2.2-6.9-6.8
		C67.5,212.1,85.6,213.9,82.8,221.6z M86.9,185.4c0.5,0.5,0.8,0.9,1.1,1.7c0.1,0.1,0.8,3.1,2.1,0.9l2.6-8.5
		c-4.2-0.2-6.5-0.4-10.4,2.4c-3.7,2.6-1.2,2.6-5.9,2c-15.1-2-23.1,11-15.2,18.4c2.6,2.4,4,2.3,5.6,3.2c-2,0.6-4.4,1.3-5.1,2.8
		c-1.4,3,1.4,3.7,3,4.8c-10.6,2.5-9.1,10.1-3.5,13.3c6.4,3.6,23.8,3.8,29.6-3.2c2-2.4,2.5-7.1,0.2-9.7c-2-2.2-5.1-3.1-8.8-3.8
		l-8.4-1.1c-1.4-0.2-1.6-0.2-2-1.2c2.4-2.2,11.5,1.1,16.6-7c3.1-4.9,1.6-10.4-3.6-13.8c-0.3-0.2-0.6-0.4-1-0.6
		c-0.1-0.1-0.2-0.1-0.2-0.2c0.4,0.3-0.5-0.3,0,0c0,0-0.1-0.1-0.1-0.1c-0.3-0.3-0.4-0.3-0.5-0.5C84.3,184.2,85.6,184.3,86.9,185.4z
		 M25.2,211.6c-2.2,2.4-10,4.2-11.4-0.6c-0.6-2.2-0.7-13.9-0.4-16.3c5.1-0.1,10.6-0.5,12.8,3.6C28.2,201.9,27.8,208.7,25.2,211.6z
		 M13.5,175.1c6.9-0.7,11.5,0.9,11.4,8c-0.1,7.4-4.4,8.3-11.4,8.1C13.1,189.5,13,176.6,13.5,175.1z M26.8,192.4
		c0.1-0.1,0.2-0.2,0.2-0.2c0,0.1,0.2-0.1,0.2-0.2c0.1,0,0.4-0.2,0.5-0.3c2.1-1.1,3.5-1.1,5.8-4c3.1-4.1,3.9-16.1-14.2-16.1
		l-18.9,0.1c0,3.7,3.1-0.1,3.1,6.6c0,5.4,0.5,30.1-0.6,34c-1.1,3.9-3.2,1.7-2.9,4.7l14.1-0.1c9.1,0.1,24.2,1,24.1-13.1
		C38.2,196.8,33.2,193.5,26.8,192.4z M174.2,183.6l-3.5,10.7c-1.8,0-4.5-2.8-6.7,0.3c-1.3,1.9-1.5,4.9-1.5,7.6
		c0,2.7-0.1,6.5,0.4,9.1c0.9,4.7,3.5,2.7,3.5,5.4l-17.3,0.1c0-2.6,0.6-1,2.2-2.7c0.8-0.8,1.1-1.9,1.3-3.1c0.5-3,0.4-14.1,0.3-17.6
		c-0.1-5.2-0.7-4.6-3.4-5.4c0-2,0.2-1.5,2.6-1.8c4.4-0.5,6.7-1.3,10.4-2l0,5.7C164.7,187.9,165.6,183.2,174.2,183.6z M226.9,186.3
		c3.6-0.2,5.8,4,5.5,7.8l-11,0.1C221.2,190.7,223.8,186.4,226.9,186.3z M241.9,202.3c-1.7,4.3-4.2,13.1-13,11.2
		c-5.9-1.3-9.1-8.9-7.7-16.3l22.6,0c-2-20.6-36.3-17.6-33.5,5.7c1.7,14.7,20.4,19.5,30,9.5c1.2-1.2,2.2-3.2,3.1-5.2
		C244.7,203.8,244.1,203.9,241.9,202.3z M195.6,194.1l-11.2,0C185.8,183.5,195.2,183.7,195.6,194.1z M184.3,197.2l22.6,0
		c-1.3-9.4-7.7-14.4-18.3-13.6c-20.3,1.5-20.8,31.3-0.6,33.7c2.5,0.3,5.1,0.2,7.5-0.4c6-1.5,10.4-6.1,11.7-12.6l-2.4-2
		C201.3,219.7,182,216.7,184.3,197.2z M283.4,216.6l-17.4,0.1c0-0.7-0.1-0.4,0.1-1c0.3-0.8,0.8-0.9,0.9-1c2.5-0.9,2.6-3.5,2.8-6.4
		c0.1-3,0.1-6.2,0.1-9.2c0-5.2-0.6-12.3-6.9-11.3c-4.7,0.7-6.1,6.7-6.1,12c0,3-0.1,6.2,0.1,9.2c0.2,3.1,0.6,5.1,3.2,6.1
		c0.8,0.6,0.5,0.1,0.5,1.5l-17.4,0.1c0.1-2.3,0.6-1,2.2-2.6c0.8-0.8,1.2-1.7,1.4-3c0.5-2.9,0.4-14.6,0.3-18.2
		c-0.1-4.8-1-4.3-2.3-4.8c-1.6-0.6-0.9,0.6-1.1-1.2c0.9-1.2,4.7-1.1,6.3-1.4c2.2-0.4,4.1-1,6.2-1.4l0,5c1.9-1.8,1.4-2.6,4.3-4.2
		c5.1-2.9,13.8-2.1,17.1,4.5c3.8,7.6-0.4,21.6,3.8,24.9C283.1,215.6,283.3,214.5,283.4,216.6z M325.9,216.5
		c-11.5,0-22.1-0.3-33.4,0.2c-0.3-3.6,2.1-0.4,3.1-5.7c0.8-4.3,0.5-26.8,0.5-32c0-7.1-3.1-3.1-3.1-7.2l30.8,0l3,12.2
		c-2.5,0.6-1.6-0.5-3.8-2.7c-5.1-5.1-9.5-6.8-17.1-6.1l0.1,15.9c3.9,0.2,7.7,0.3,10.8-2.2c4-3.2,1.1-4.9,4.6-5l-0.1,17.9
		c-2.4,0-1.4-0.6-2.4-2.6c-2.4-4.8-8.1-5.3-13-4.8c0,4.2-0.6,14.7,1.5,17.3c2.9,3.6,11.7,0.5,15.7-4.5c0.9-1.2,1.7-2.1,2.6-3.4
		c1.9-2.9,1.6-3.3,3.3-2.8C329.4,203,326.3,213.7,325.9,216.5z M150.3,195.2c-1.2,0.9-2.5,0.7-3.4,1.9c-1.5,2.2,0,11.7-0.5,14.3
		c-0.2,1.1-4.1,3.5-5.9,4.3c-2.4,1.1-5.1,1.8-8,2.1c-13.4,1.6-23.2-4.2-26.8-13.9c-4.7-12.8,1.1-24.3,9.1-28.9
		c8.4-4.9,19.8-4.4,28.7,0.1c1.1,0.5,2.3,1.4,3.3,1.8c-0.4,2-1.4,4.3-2,6.3c-1.1,3.4-1.1,5.6-2.8,5.1c-0.9-0.5-0.8-1.8-1.1-3
		c-1.7-7.7-7.4-12.9-16-9.9c-11.3,3.9-9.7,28.6-5.3,35.4c2,3.1,6.1,5.4,11.2,4c6.1-1.7,4.9-15.6,2.7-17.6c-3.2-3-5.5,0.7-5.5-3.4
		c4.7,0.3,21.7,0.1,22,0.1L150.3,195.2z M350,224.9c-3.7,1.3-8.7,0.9-11-1.5c-1.8-1.9-2.9-6.9,3-8.6c3.6-1,9-0.3,11.2,1.9
		C356.4,220,353.2,223.8,350,224.9z M343.8,186.4c8.5-3.3,9.2,15.3,2.9,16.9c-4.3,1.1-6.5-3-6.9-6.8
		C339.4,192.2,340.4,187.7,343.8,186.4z M343.2,207c1.8-1.8,12.4,0.3,16.5-6.8c1.6-2.7,2.2-6.2,0.6-9.5c-1.7-3.6-4.9-4.6-6.1-5.8
		c1.3-1,2.6-1.2,4,0c1.2,1.1,2.3,6.3,3.6,1.6l2.3-7.3c-4.3-0.9-8.4,0.5-11.6,3.1c-2.1,1.8-0.3,1.7-4.6,1.1c-1.4-0.2-2.8-0.2-4.3-0.1
		c-14.6,0.9-16.9,13.7-11,18.6c1.6,1.3,3.3,2,5.6,3c-2.3,0.9-4.3,1.2-5.2,3.1c-1.3,2.8,1.1,3.7,3,4.5c-3.5,1.2-6.4,1.8-8,4.7
		c-4.6,8.4,12.3,13.3,25.4,10.2c3.7-0.9,6.6-2.4,8.2-4.5c1.9-2.5,2.6-6.5,0.5-9.5C358.2,207.4,344.4,209.9,343.2,207z M389.6,222.1
		c-0.7,1.3-2.2,2.3-4.1,2.8c-12.1,3.4-16.1-7.8-7.6-10.2c3.5-1,9.4-0.1,11.3,2C390.3,218,390.6,220.3,389.6,222.1z M379.7,186.3
		c8.5-2.9,9,15,2.9,16.9C374.5,205.8,373.2,188.5,379.7,186.3z M389.7,209.3l-8.4-1.1c-1.5-0.2-1.9-0.1-2.3-1.3
		c2.3-2.1,11.6,1,16.6-6.9c3.3-5.2,1.2-10.7-3.6-13.9l-1.8-1.3c2.1-1.6,4.3-0.1,5.1,1.8c0,0,0.7,3.2,2.1,0.9c0,0,0.4-1.1,0.4-1.2
		l2.2-7.3c-3.2-0.2-4.6-0.5-7.6,0.8c-1.2,0.5-1.9,1-2.8,1.6c-0.9,0.6-1.8,1.6-2.4,2c-1.6,1-7.2-2-14.8,1.6
		c-7.3,3.5-9.3,11.5-3.9,16.6c0.8,0.7,1.4,1.3,2.5,1.9c1,0.6,2.2,0.8,3.1,1.4c-2.1,0.5-4.5,1.3-5.2,2.8c-1.4,3.2,1.5,3.8,3,4.7
		c-10.5,2.2-9.7,10-3.8,13.2c5.4,3,15.4,3,21.6,1.5c1.7-0.4,3.1-0.9,4.6-1.7c2.1-1.1,2.3-1.3,3.6-2.8c2.1-2.4,2.8-6.8,0.5-9.6
		C396.5,210.9,393.6,210,389.7,209.3"/>
</g>
</svg>
