<?xml version="1.0" encoding="utf-8"?>
<!-- Generator: Adobe Illustrator 23.0.1, SVG Export Plug-In . SVG Version: 6.00 Build 0)  -->
<svg version="1.1" id="Clients_Logo" xmlns="http://www.w3.org/2000/svg" xmlns:xlink="http://www.w3.org/1999/xlink" x="0px"
	 y="0px" viewBox="0 0 400 400" style="enable-background:new 0 0 400 400;" xml:space="preserve">
<style type="text/css">
	.st0{fill:#101111;}
</style>
<g id="Brioni">
	<g>
		<polygon class="st0" points="219.6,179.3 209.5,179.3 203.6,187 213.9,187 		"/>
		<path class="st0" d="M340.9,179.3c-0.6,1.1-2.2,3.3-5.6,8.1h9.3l5.4-8L340.9,179.3z"/>
		<path class="st0" d="M240.4,207.9c-0.5,1.6-1.1,3.2-1.8,4.7c-1.1,2.1-2.5,4.1-4,5.9c-7.4,10.3-14.9,12.7-17.7,13.3
			c-0.4,0.1-0.8,0.1-1.2,0.1c-1.5,0.1-2.9-0.7-3.6-1.9c-2.4-4.1,0.3-13.3,6.2-20.5c1.8-2.3,3.8-4.4,5.9-6.4c2.1-2,4.3-3.7,6.8-5.2
			c2.2-1.4,4.6-2.3,7.2-2.5c1.3-0.1,2.6,0.2,3.7,0.8C234,197.5,231.4,212.5,240.4,207.9 M130.3,211.4c-3.9,16.2-21.9,24.8-29.4,27.7
			c-2.1,0.9-4.4,1.4-6.7,1.5c-1.1,0.1-2.1-0.2-3-0.8c-0.9-0.8-1.2-2.1-0.8-3.2c0.9-4.5,8.5-12.6,22.5-19.5c2.1-1,7-3.2,12.5-5.2
			c1.3-0.4,2.6-0.9,4-1.3l1.1-0.3L130.3,211.4z M120.8,201.5c-2.5,1.4-5.2,2.4-8,3c-2.6,0.5-5.8,0.8-8.4-0.3
			c-0.3-0.1-0.7-0.3-0.9-0.6c-1.2-1.4,0.8-3,1.8-3.6c1.8-1.2,3.9-2,6.1-2.3c3.7-0.4,7.3-0.1,10.9,0.8l2,0.6
			C123.1,200,122,200.8,120.8,201.5 M318,208.8c-6.8,7.2-14.2,11.6-18.7,14.4l-1.2,0.8c-6.1,3.9-13.3,6.8-15.4,4.6
			c-1-1.1-0.6-3,1.4-5.7c3.1-4.4,15.4-21.8,15.4-21.8c1.3-1.7,2.6-4.8,1.5-6.8c-1-1.7-3.8-2.3-8.1-1.9c-4.8,0.4-13.9,4.6-18.4,7.8
			l0.1-1.3c0.2-1.8-0.4-3.7-1.7-5c-1.4-1.4-3.7-2.1-6.5-2c-7.6,0.4-17,7.4-19.7,9.6l-1.3,1c1-6.2-0.8-11.2-9.3-10.8
			c-6.9,0.5-16.8,4.6-23.9,12.9c-4.9,5.7-7.9,12.1-8.4,18.2v0.3l-0.2,0.2c-5.2,4.3-10.3,6.7-15.5,7.3c-1.9,0.3-3-0.2-3.6-1.1
			c-1-1.8,1.1-4.6,1.5-5.2l23.4-31.4h-10.1l-17.6,22.8c-7.4,10-14.9,16-19.4,16c-1.6,0.1-3-0.8-3.6-2.3c-1-2.2,1.4-5.3,1.7-5.7
			l18-24c1.6-2,2.8-5.2,1.8-6.6c-0.4-0.6-1.4-1.4-4.4-1c-0.6,0.1-1.2,0.3-1.7,0.3c-2,0.5-10.6,3.5-9.6,2.3l1.4-1.3
			c4.3-3.7,7-8.1,6.8-11c-0.1-0.7-0.4-1.3-0.8-1.7c-0.3-0.2-0.6-0.4-0.9-0.5c-0.3,0-0.6,0-0.9,0c-0.7,0.2-1.3,0.4-1.9,0.8
			c-1.3,0.7-5.3,3.5-7.1,11l-0.1,0.2c-0.2,0.8-0.3,1.6-0.4,2.4l-0.1,0.3c-2.4,2.5-9.3,6.5-16.6,9c-2,0.7-4.3,1.2-6.5,1.8
			c-1.1-2.4-2.7-4.5-4.8-6.1l0.8-0.5c15.4-8.7,26.7-22,29.6-30.2c1.6-4.6,3.2-16.1-2.3-21.9c-2.1-2.2-5-3.3-8.6-3.3
			c-2.7,0.1-5.3,0.5-7.9,1.4c-17.1,5.2-31.8,14.9-45.1,29.6c-20.4,22.8-36,48.9-49,82.3h13.4c3-9,6.2-18.4,10-27.4
			c7-17.4,16.6-33.6,28.5-48.1c13.5-16.4,28.5-27.9,44.4-34.1c4.3-1.5,7.3-1.4,9,0.4c3.5,3.8-0.4,13.5-3,18.9c-1.5,3-3.3,6-5.2,8.8
			v0.1c-4.2,6-9,11.7-14.3,16.8c-1.6,1.6-3.3,3.1-5.1,4.6l-0.7-0.3c-4.9-1.6-10.1-2.2-15.3-1.6c-3.8,0.3-7.4,1.6-10.6,3.7
			c-1.7,1.1-5.2,4.1-3.1,6.3c0.5,0.4,1,0.8,1.5,1c4.3,1.9,9.7,1.4,14.2,0.5c0.5-0.1,1-0.2,1.5-0.3c2.4-0.6,4.8-1.4,7.1-2.4l1.8-0.8
			c0.9-0.4,1.9-0.8,2.9-1.3c0.3-0.1,0.5-0.3,0.8-0.3l0.5-0.3l0.3,0.4c1.2,1.4,1.7,3.2,1.6,5.1v0.5l-0.4,0.2
			c-3.6,1.1-6.9,2.2-10.1,3.4c-4.2,1.5-8.3,3.3-12.3,5.3c-0.8,0.4-1.6,0.8-2.4,1.2c-0.1,0.1-0.3,0.1-0.3,0.2
			c-14.6,7.9-19.1,15.4-20.3,18.1c-1.2,2.7-1.3,5.2-0.3,7.1c0.7,1.4,2.4,2.4,4.8,3c7.6,1.9,21.8-1,36.4-11.5
			c5-4.1,8.6-8.2,10.8-12.6c2.7-5.7,2.9-10.4,1.9-13.9c7.7-2.5,16.3-6.1,22.6-10.8h0.3c1.5,0,4-0.8,5.9-1.4c1-0.3,2.4-0.6,3,0.3
			c0.8,1.2-1.2,3.4-2.3,4.6c-0.1,0.1-10.6,14-15.2,20.4c-3.7,5.2-3.3,8.5-2.8,10.1c0.5,1.6,1.8,2.8,3.4,3.1
			c11.2,2.4,19.2-5.4,23.6-10c-3.2,9.5,4.1,12,10,10.1c6.9-1.9,15.1-7.5,17.3-9.4l0.1,1.2c0.3,3.5,1.8,6,4,7c6.1,2.7,17.1,1.4,28-11
			l-0.1,0.2c2.1-1.9,7.2-9.9,9.1-17.3c5.1-4.7,11.4-8,17.1-8.7c1.9-0.3,3,0.2,3.6,1.1c1,1.8-1.1,4.6-1.5,5.2l-23.6,31.4h10.3
			c0.5-0.6,0.9-1.3,1.4-1.9l3.5-4.6l4.6-5.8c1.4-1.9,2.9-3.8,4.4-5.7c1-1.4,2-2.7,3.1-4c1.8-2.4,3.7-4.8,5.7-7
			c2.7-2.8,6.1-5,9.7-6.5c1.6-0.7,3.2-1.1,4.9-1.4c1-0.1,2.4-0.3,3.2,0.6c0.5,0.5,0.8,1.4-0.5,3.2l-8.8,11.7
			c-1.7,2.2-3.5,4.7-4.2,5.7c-1.9,2.6-7.6,10.5-5.5,14.1c1,1.8,4,2.3,8.8,1.7c11.1-1.5,25.3-12,35.1-20.5l3.2-2.8l-2.2,3.6
			c-12.9,21.5-19.3,38.3-20.8,42.1h11.8c7-25.4,29-58.3,32.9-63.8h-10.1C329.8,194.9,327.7,198.8,318,208.8"/>
	</g>
</g>
</svg>
