<?xml version="1.0" encoding="utf-8"?>
<!-- Generator: Adobe Illustrator 23.0.1, SVG Export Plug-In . SVG Version: 6.00 Build 0)  -->
<svg version="1.1" id="Clients_Logo" xmlns="http://www.w3.org/2000/svg" xmlns:xlink="http://www.w3.org/1999/xlink" x="0px"
	 y="0px" viewBox="0 0 400 400" style="enable-background:new 0 0 400 400;" xml:space="preserve">
<style type="text/css">
	.st0{fill:#101111;}
	.st1{display:none;}
	.st2{display:inline;}
	.st3{display:inline;fill:url(#SVGID_1_);}
</style>
<g id="Chilly_x27_s">
	<g id="text">
		<path class="st0" d="M140.2,181.4c-9.8,0-16.8,8.1-16.8,18.7c0,11.1,7.3,18.6,17,18.6c6.4,0.4,12.2-3.6,14.1-9.7l8.5,2.8
			c-3.6,9.5-11.2,15.1-22.7,15.1c-15,0-25.9-10.6-25.9-27c0-15.7,10.7-27,25.8-27c11,0,19.6,5.6,23.1,16.2l-8.7,2.8
			C152.9,185.4,146.9,181,140.2,181.4"/>
		<path class="st0" d="M219.8,227h7.7v-51.5h-7.7V227z"/>
		<path class="st0" d="M240.4,175.5h8.5v43.2h17.2v8.2h-25.7V175.5z"/>
		<path class="st0" d="M276.5,175.5h8.5v43.2h17.2v8.2h-25.7V175.5z"/>
		<path class="st0" d="M323.3,227h-8.8V207L297,175.5h9.6l12.2,22.4l12.3-22.4h9.6L323.3,207L323.3,227z"/>
		<path class="st0" d="M170.9,175.5h9v21.6h20.6v-21.6l9,0V227h-9v-21.6h-20.6V227h-9V175.5z"/>
		<path class="st0" d="M361.4,213l8.4-2.3c1.8,5.7,4.8,8.6,11.3,8.6c5.8,0,10-2.4,10-7.1c0-3.3-2.1-5.8-10.1-7.1
			c-11.6-2.1-18.1-6.4-18.1-14.8c0-8.6,7.5-14.6,18.1-14.6c8.5-0.6,16.2,5.2,18,13.5l-8.4,2.3c-1.4-5.1-4-8-9.6-8
			c-5.4,0-9.2,2.3-9.2,6.9c0,3.9,3.8,5.3,10.8,6.7c11.7,2.3,17.4,6.7,17.4,15.3c0,9.1-8.4,14.9-18.9,14.9
			C370.9,227,363.9,222.1,361.4,213"/>
		<path class="st0" d="M356.2,181.5v-5.9h-7.7V191c2-0.2,3.8-0.9,5.4-2.2C355.7,186.8,356.5,184.1,356.2,181.5"/>
	</g>
	<g id="logo-filled">
		<path class="st0" d="M11.4,158c-2.8,2.1-6.7,1.7-9-1c-2.7-2.2-3.2-6.2-1-9c2.8-2.1,6.7-1.7,9,1C13.1,151.2,13.5,155.2,11.4,158z"
			/>
		<path class="st0" d="M57.2,227.4c-3.2,6.6-8,12.3-13.8,16.7c-5.5,4-11.8,6.8-18.4,8.2c-7.8,1.9-16,1-23.2-2.6
			c-1.2-0.3-2-1.6-1.6-2.9c0.1-0.5,0.4-0.9,0.9-1.3c3.8-3.1,7.3-6.4,10.5-10.1c6.4-8,9.8-18,9.8-28.3c-0.2-7.9-2.3-15.6-6.1-22.5
			c-3.4-5.8-2.3-13.2,2.6-17.8c2.8-2.5,6.5-3.7,10.2-3.4c4.9,0.7,9.6,2.6,13.6,5.6c12.7,8.6,20.3,22.9,20.3,38.3
			C61.8,214.3,60.2,221.2,57.2,227.4L57.2,227.4z"/>
	</g>
	<g id="logo-gradient_1_" class="st1">
		<path class="st2" d="M11.4,158c-2.8,2.1-6.7,1.7-9-1c-2.7-2.2-3.2-6.2-1-9c2.8-2.1,6.7-1.7,9,1C13.1,151.2,13.5,155.2,11.4,158z"
			/>
		<linearGradient id="SVGID_1_" gradientUnits="userSpaceOnUse" x1="30.8746" y1="253.3417" x2="30.8746" y2="163.4371">
			<stop  offset="0" style="stop-color:#666666"/>
			<stop  offset="0.4" style="stop-color:#000000"/>
		</linearGradient>
		<path class="st3" d="M57.2,227.4c-3.2,6.6-8,12.3-13.8,16.7c-5.5,4-11.8,6.8-18.4,8.2c-7.8,1.9-16,1-23.2-2.6
			c-1.2-0.3-2-1.6-1.6-2.9c0.1-0.5,0.4-0.9,0.9-1.3c3.8-3.1,7.3-6.4,10.5-10.1c6.4-8,9.8-18,9.8-28.3c-0.2-7.9-2.3-15.6-6.1-22.5
			c-3.4-5.8-2.3-13.2,2.6-17.8c2.8-2.5,6.5-3.7,10.2-3.4c4.9,0.7,9.6,2.6,13.6,5.6c12.7,8.6,20.3,22.9,20.3,38.3
			C61.8,214.3,60.2,221.2,57.2,227.4L57.2,227.4z"/>
	</g>
</g>
</svg>
