<?xml version="1.0" encoding="utf-8"?>
<!-- Generator: Adobe Illustrator 23.0.1, SVG Export Plug-In . SVG Version: 6.00 Build 0)  -->
<svg version="1.1" id="Clients_Logo" xmlns="http://www.w3.org/2000/svg" xmlns:xlink="http://www.w3.org/1999/xlink" x="0px"
	 y="0px" viewBox="0 0 400 400" style="enable-background:new 0 0 400 400;" xml:space="preserve">
<style type="text/css">
	.st0{fill:#101111;}
</style>
<g id="Ginori_1735_1_">
	<path class="st0" d="M155.5,190.2c-0.9-0.9-1.5-2-1.5-3.6v-42.1l45.6,49.4v-59.4c0-1.6,0.6-2.7,1.5-3.6c1-1.1,2.5-2.2,2.5-2.2h-15
		c0,0,1.5,1.1,2.5,2.2c0.9,0.9,1.5,2,1.5,3.6v42.1L147,127v59.6c0,1.6-0.6,2.7-1.5,3.6c-1,1.1-2.5,2.2-2.5,2.2h15
		C158,192.4,156.5,191.3,155.5,190.2"/>
	<path class="st0" d="M134.2,268.6c-0.9-0.9-1.5-2-1.5-3.6V207h-12.2c0,0,2.7,2.2,3.7,3.6c1.2,1.5,1.4,3.2,1.4,5.3c0,0.3,0,49,0,49
		c0,1.6-0.6,2.7-1.5,3.6c-1,1.1-2.5,2.2-2.5,2.2h15C136.7,270.7,135.2,269.6,134.2,268.6"/>
	<path class="st0" d="M87.8,170.8c0,0,1.1-1,2.7-1.9c2.1-1.2,4-1.5,6.2-1.5h9.6c-1.9,11.7-10.5,19.9-23.4,19.9
		c-13.3,0-25.6-10.8-25.6-26.5c0-15,10.3-26.8,25.7-26.9c5.1,0,9.5,1.4,13.2,3.8c5.9,3.8,7.7,9.6,7.7,9.6l6.5-4.6
		c-1-1.7-3.3-4.9-5.4-6.8c-6-5.7-13.4-8.6-22-8.6c-19.9,0-33.1,15.6-33.1,33.5c0,18,13.9,33.3,33,33.3c19.3,0,31.1-13.9,31.6-33.1
		H87.8L87.8,170.8L87.8,170.8L87.8,170.8z"/>
	<path class="st0" d="M243.9,194c19.4,0,32.8-15.5,32.8-33.4c0-17.8-13.3-33.4-32.8-33.4s-32.8,15.5-32.8,33.4
		C211.1,178.5,224.4,194,243.9,194 M243.9,134c14.6,0,25.3,11.8,25.3,26.6c0,14.8-10.7,26.7-25.3,26.7c-14.6,0-25.3-11.9-25.3-26.7
		C218.5,145.8,229.2,134,243.9,134"/>
	<path class="st0" d="M123,190.2c-1,1.1-2.5,2.2-2.5,2.2h15c0,0-1.5-1.1-2.5-2.2c-0.9-0.9-1.5-2-1.5-3.6v-52.1
		c0-1.6,0.6-2.7,1.5-3.6c1-1.1,2.5-2.2,2.5-2.2h-15c0,0,1.5,1.1,2.5,2.2c0.9,0.9,1.5,2,1.5,3.6v52.1
		C124.5,188.2,124,189.2,123,190.2"/>
	<path class="st0" d="M222.6,237c5.6-2.5,9.3-7.9,9.3-14.3c0-9.9-7.9-17.3-18.8-17.2c-11.3,0.2-18.3,8.2-18.7,17.4l7.4,1.1
		c0,0,0-3.1,0.9-5.5c1.2-3.5,5.3-6.5,10.6-6.5c6.8,0,11.6,4.6,11.6,10.8c0,7.7-6.3,11.1-13.8,11.4v6.4c9.9,0.2,15.4,5,15.4,12.3
		c0,7.9-6.2,12.8-13.2,12.8c-5.6,0-10.4-2.9-12.3-7.2c-1-2.3-1.3-3.6-1.7-5.3l-7.3,2.2c2.3,11.4,11.3,16.7,20.9,16.7
		c11.7,0,20.6-7.9,20.6-19C233.5,245.4,229,239.6,222.6,237"/>
	<path class="st0" d="M147,217c0,0,1.2-1.3,3-2.3c1.7-0.9,2.9-1.1,4.8-1.1h23.8l-30,54.6l8.1,4.8c0,0-0.3-1.8-0.1-3.7
		c0.2-1.5,0.5-2.4,0.9-3.4c0.3-0.6,1-2,1-2l31.3-56.9H147V217z"/>
	<path class="st0" d="M347.5,190.2c-0.9-0.9-1.5-2-1.5-3.6v-52.1c0-1.6,0.6-2.7,1.5-3.6c1-1.1,2.5-2.2,2.5-2.2h-15
		c0,0,1.5,1.1,2.5,2.2c0.9,0.9,1.5,2,1.5,3.6v52.1c0,1.6-0.6,2.7-1.5,3.6c-1,1.1-2.5,2.2-2.5,2.2h15
		C350,192.4,348.5,191.3,347.5,190.2"/>
	<path class="st0" d="M325.3,186.7l-15-22.9c9.3-1.7,14.4-8,14.4-17.5c0-6.8-3.2-11.6-6.9-14.1c-4.7-3.2-11.1-3.5-15.4-3.5l-18.5,0
		c0,0,1.5,1.1,2.5,2.2c0.9,0.9,1.5,2,1.5,3.6v52.1c0,1.6-0.6,2.7-1.5,3.6c-1,1.1-2.5,2.2-2.5,2.2h15c0,0-1.5-1.1-2.5-2.2
		c-0.9-0.9-1.5-2-1.5-3.6v-22.1h7.6l18,27.9h11.7C332.3,192.4,328.4,191.4,325.3,186.7 M295,158.2v-22.8h8.6c3,0,6.3,0.2,9.1,1.8
		c4,2.3,4.9,5.8,4.9,9.4c0,7.4-5.1,11.6-13.9,11.6H295z"/>
	<path class="st0" d="M259.9,229.2c-2.2,0-4.6,0.4-6.8,0.9l2.7-16.5l21.9,0v-9.4c0,0-1.4,1.1-3.2,1.9c-1.4,0.6-2.3,0.7-3.5,0.8
		c-0.3,0-0.8,0.1-1.3,0.1h-19.3l-5.5,32.6c2.9-1.9,7.5-4.1,13-4.2c9.8-0.3,16.1,5.5,16.4,14.8c0.3,8.8-6.4,15.9-15,15.4
		c-3.8-0.2-7.5-1.3-10.3-3.6c-1.8-1.5-3.7-3.4-4.7-5.2l-5.7,4.8c5.4,7.1,14,10.4,21.1,10.4c12.8,0,21.8-9.3,21.8-21.8
		C281.4,238.6,273.2,229,259.9,229.2"/>
</g>
</svg>
