<svg width="20" height="22" viewBox="0 0 20 22" fill="none" xmlns="http://www.w3.org/2000/svg">
<path d="M18.8431 15.0355L10 20.3046L1.15686 15.0355C0.98064 14.9305 0.770799 14.9013 0.5735 14.9543C0.376201 15.0074 0.207605 15.1383 0.104802 15.3183C0.00199886 15.4983 -0.0265907 15.7126 0.0253227 15.9141C0.0772362 16.1157 0.2054 16.2879 0.38162 16.3929L9.61238 21.8929C9.73003 21.963 9.86379 21.9999 10 21.9999C10.1362 21.9999 10.27 21.963 10.3876 21.8929L19.6184 16.3929C19.7056 16.3409 19.782 16.2718 19.8431 16.1897C19.9043 16.1075 19.949 16.0139 19.9747 15.9141C20.0004 15.8143 20.0066 15.7104 19.993 15.6081C19.9793 15.5059 19.9461 15.4074 19.8952 15.3183C19.8443 15.2291 19.7767 15.1511 19.6963 15.0887C19.6159 15.0262 19.5242 14.9806 19.4265 14.9543C19.3288 14.9281 19.227 14.9217 19.1269 14.9357C19.0268 14.9496 18.9304 14.9835 18.8431 15.0355Z" fill="#FE84BA"/>
<path d="M18.8431 10.3214L10 15.5904L1.15686 10.3214C0.98064 10.2164 0.770799 10.1872 0.5735 10.2402C0.376201 10.2932 0.207605 10.4242 0.104802 10.6042C0.00199886 10.7841 -0.0265907 10.9985 0.0253227 11.2C0.0772362 11.4015 0.2054 11.5737 0.38162 11.6788L9.61238 17.1788C9.73003 17.2489 9.86379 17.2858 10 17.2858C10.1362 17.2858 10.27 17.2489 10.3876 17.1788L19.6184 11.6788C19.7946 11.5737 19.9228 11.4015 19.9747 11.2C20.0266 10.9985 19.998 10.7841 19.8952 10.6042C19.7924 10.4242 19.6238 10.2932 19.4265 10.2402C19.2292 10.1872 19.0194 10.2164 18.8431 10.3214Z" fill="#FE84BA"/>
<path d="M0.38161 6.96439L9.61237 12.4644C9.73002 12.5345 9.86378 12.5714 9.99999 12.5714C10.1362 12.5714 10.27 12.5345 10.3876 12.4644L19.6184 6.96439C19.7345 6.89519 19.8308 6.79611 19.8978 6.67703C19.9647 6.55796 20 6.42303 20 6.28571C20 6.14839 19.9647 6.01347 19.8978 5.89439C19.8308 5.77531 19.7345 5.67623 19.6184 5.60704L10.3876 0.107038C10.27 0.0369375 10.1362 0 9.99999 0C9.86378 0 9.73002 0.0369375 9.61237 0.107038L0.38161 5.60704C0.265487 5.67623 0.169147 5.77531 0.10219 5.89439C0.0352339 6.01347 0 6.14839 0 6.28571C0 6.42303 0.0352339 6.55796 0.10219 6.67703C0.169147 6.79611 0.265487 6.89519 0.38161 6.96439Z" fill="#FE84BA"/>
</svg>
