<svg width="20" height="26" viewBox="0 0 20 26" fill="none" xmlns="http://www.w3.org/2000/svg">
<path d="M19.976 11.9353C19.9418 11.7965 19.8723 11.668 19.7736 11.561C19.6749 11.454 19.55 11.3718 19.4101 11.3218L12.8612 8.98059L14.5278 1.03661C14.5666 0.851711 14.5411 0.659797 14.4551 0.489979C14.3691 0.320161 14.2274 0.181705 14.0514 0.0956115C13.8754 0.00951827 13.6748 -0.0195149 13.48 0.0129158C13.2851 0.0453464 13.1067 0.137471 12.9717 0.275317L0.244499 13.2753C0.142519 13.3795 0.0690504 13.506 0.0305993 13.6437C-0.00785188 13.7814 -0.0100999 13.926 0.0240545 14.0647C0.0582088 14.2034 0.127712 14.332 0.22641 14.439C0.325108 14.546 0.449957 14.6281 0.589902 14.6781L7.13879 17.0194L5.47221 24.9633C5.4334 25.1482 5.45892 25.3402 5.54488 25.51C5.63085 25.6798 5.77257 25.8183 5.94855 25.9044C6.12453 25.9905 6.32517 26.0195 6.52002 25.9871C6.71488 25.9546 6.89332 25.8625 7.02827 25.7246L19.7555 12.7246C19.8575 12.6205 19.9309 12.4939 19.9694 12.3563C20.0078 12.2186 20.0101 12.074 19.976 11.9353Z" fill="#FFAB2E"/>
</svg>
