<?xml version="1.0" encoding="utf-8"?>
<!-- Generator: Adobe Illustrator 23.0.1, SVG Export Plug-In . SVG Version: 6.00 Build 0)  -->
<svg version="1.1" id="Layer_1" xmlns="http://www.w3.org/2000/svg" xmlns:xlink="http://www.w3.org/1999/xlink" x="0px" y="0px"
	 viewBox="0 0 256 256" style="enable-background:new 0 0 256 256;" xml:space="preserve">
<style type="text/css">
	.st0{fill:#6651CF;}
</style>
<g>
	<path class="st0" d="M120,108.7c-10.6,17.9-20.9,35.2-31.3,52.4c-2.7,4.4-4,8-1.9,13.6c5.9,15.5-2.4,30.6-18.1,34.7
		c-14.8,3.9-29.1-5.8-32-21.6c-2.6-14,8.3-27.7,23.7-29.9c1.3-0.2,2.6-0.2,4.8-0.4l23.4-39.3c-14.7-14.7-23.5-31.8-21.6-53
		c1.4-15,7.3-28,18.1-38.6c20.7-20.4,52.2-23.7,76.5-8c23.4,15,34.1,44.3,24.9,69.3c-6.9-1.9-13.8-3.7-21.4-5.8
		c2.9-13.9,0.7-26.4-8.6-37.1c-6.2-7.1-14.2-10.8-23.2-12.1c-18.1-2.7-35.9,8.9-41.2,26.7C86.1,79.8,95.2,96.3,120,108.7L120,108.7z
		"/>
	<path class="st0" d="M150.4,87.6c7.5,13.2,15.1,26.7,22.7,40c38.2-11.8,66.9,9.3,77.3,31.9c12.5,27.3,3.9,59.7-20.5,76.5
		c-25.1,17.3-56.9,14.3-79.2-7.9c5.7-4.8,11.4-9.5,17.5-14.6c22,14.2,41.2,13.6,55.5-3.3c12.2-14.4,11.9-35.8-0.6-49.9
		c-14.5-16.3-33.8-16.8-57.2-1.1c-9.7-17.2-19.6-34.3-29-51.7c-3.2-5.8-6.7-9.2-13.8-10.5c-11.9-2.1-19.6-12.3-20.1-23.8
		c-0.5-11.4,6.2-21.6,16.7-25.6c10.4-4,22.5-0.8,29.5,8c5.7,7.2,7.5,15.3,4.5,24.2C152.6,82.2,151.6,84.6,150.4,87.6L150.4,87.6z"/>
	<path class="st0" d="M168.3,195.8h-45.9c-4.4,18.1-13.9,32.7-30.3,42c-12.7,7.2-26.5,9.7-41.1,7.3c-26.9-4.3-48.9-28.6-50.8-55.8
		c-2.2-30.9,19-58.4,47.4-64.5c2,7.1,3.9,14.3,5.9,21.3c-26,13.3-35,29.9-27.7,50.8c6.4,18.4,24.6,28.4,44.3,24.5
		c20.2-4,30.3-20.7,29.1-47.6c19.1,0,38.2-0.2,57.3,0.1c7.5,0.1,13.2-0.7,18.8-7.2c9.3-10.8,26.3-9.8,36.3,0.4
		c10.2,10.4,9.7,27.3-1.1,37.3c-10.4,9.7-26.8,9.1-36.6-1.3C171.9,200.9,170.3,198.4,168.3,195.8L168.3,195.8z"/>
</g>
</svg>
