<?xml version="1.0" encoding="utf-8"?>
<!-- Generator: Adobe Illustrator 23.0.1, SVG Export Plug-In . SVG Version: 6.00 Build 0)  -->
<svg version="1.1" id="Raw" xmlns="http://www.w3.org/2000/svg" xmlns:xlink="http://www.w3.org/1999/xlink" x="0px" y="0px"
	 viewBox="0 0 256 256" style="enable-background:new 0 0 256 256;" xml:space="preserve">
<style type="text/css">
	.st0{fill:#FF656B;}
</style>
<path class="st0" d="M252.2,150.8l-14.8-19.7c0-1,0-2.1,0-3.1c0-1,0-2.1,0-3.1l14.8-19.7c3.7-4.9,4.8-11.3,3-17.1
	c-2.3-7.5-5.4-14.8-9-21.7c-2.8-5.4-8.1-9.2-14.2-10l-24.4-3.5c-0.7-0.8-1.4-1.5-2.2-2.2c-0.7-0.7-1.5-1.5-2.2-2.2L199.7,24
	c-0.9-6.1-4.6-11.3-10-14.2c-7-3.6-14.2-6.6-21.7-9c-5.8-1.8-12.2-0.7-17.1,2.9l-19.7,14.8c-2.1-0.1-4.2-0.1-6.2,0L105.2,3.8
	c-4.9-3.7-11.3-4.8-17.1-2.9c-7.5,2.3-14.8,5.4-21.7,9c-5.4,2.8-9.2,8.1-10,14.2l-3.5,24.4c-0.8,0.7-1.5,1.4-2.2,2.2
	c-0.7,0.7-1.5,1.5-2.2,2.2L24,56.3c-6.1,0.9-11.3,4.6-14.2,10c-3.6,7-6.6,14.2-9,21.7c-1.8,5.8-0.7,12.2,2.9,17.1l14.8,19.7
	c0,1,0,2.1,0,3.1c0,1,0,2.1,0,3.1L3.8,150.8c-3.7,4.9-4.8,11.3-3,17.1c2.3,7.5,5.4,14.8,9,21.7c2.8,5.4,8.1,9.2,14.2,10l24.4,3.5
	c0.7,0.8,1.4,1.5,2.2,2.2c0.7,0.7,1.5,1.5,2.2,2.2l3.5,24.4c0.9,6.1,4.6,11.3,10,14.2c7,3.6,14.2,6.6,21.7,9
	c1.8,0.6,3.7,0.9,5.7,0.9c4.1,0,8.1-1.3,11.5-3.8l19.7-14.8c2.1,0.1,4.2,0.1,6.2,0l19.7,14.8c4.9,3.7,11.3,4.8,17.1,2.9
	c7.5-2.3,14.8-5.4,21.7-9c5.4-2.8,9.2-8.1,10-14.2l3.5-24.4c0.8-0.7,1.5-1.4,2.2-2.2c0.7-0.7,1.5-1.5,2.2-2.2l24.4-3.5
	c6.1-0.9,11.3-4.6,14.2-10c3.6-7,6.6-14.2,9-21.7C257,162.1,255.9,155.7,252.2,150.8z M180.3,128c0,28.9-23.4,52.3-52.3,52.3
	S75.7,156.9,75.7,128S99.1,75.7,128,75.7C156.9,75.7,180.3,99.1,180.3,128z"/>
</svg>
