<?xml version="1.0" encoding="utf-8"?>
<!-- Generator: Adobe Illustrator 23.0.1, SVG Export Plug-In . SVG Version: 6.00 Build 0)  -->
<svg version="1.1" id="Raw" xmlns="http://www.w3.org/2000/svg" xmlns:xlink="http://www.w3.org/1999/xlink" x="0px" y="0px"
	 viewBox="0 0 256 256" style="enable-background:new 0 0 256 256;" xml:space="preserve">
<style type="text/css">
	.st0{fill:#055463;}
</style>
<g>
	<path class="st0" d="M11.6,0h93.1c6.4,0,11.6,5.2,11.6,11.6v93.1c0,6.4-5.2,11.6-11.6,11.6H11.6c-6.4,0-11.6-5.2-11.6-11.6V11.6
		C0,5.2,5.2,0,11.6,0z"/>
	<path class="st0" d="M151.3,0h93.1c6.4,0,11.6,5.2,11.6,11.6v93.1c0,6.4-5.2,11.6-11.6,11.6h-93.1c-6.4,0-11.6-5.2-11.6-11.6V11.6
		C139.6,5.2,144.8,0,151.3,0z"/>
	<path class="st0" d="M11.6,139.6h93.1c6.4,0,11.6,5.2,11.6,11.6v93.1c0,6.4-5.2,11.6-11.6,11.6H11.6C5.2,256,0,250.8,0,244.4v-93.1
		C0,144.8,5.2,139.6,11.6,139.6z"/>
	<path class="st0" d="M151.3,139.6h93.1c6.4,0,11.6,5.2,11.6,11.6v93.1c0,6.4-5.2,11.6-11.6,11.6h-93.1c-6.4,0-11.6-5.2-11.6-11.6
		v-93.1C139.6,144.8,144.8,139.6,151.3,139.6z"/>
</g>
</svg>
