<?xml version="1.0" encoding="utf-8"?>
<!-- Generator: Adobe Illustrator 23.0.1, SVG Export Plug-In . SVG Version: 6.00 Build 0)  -->
<svg version="1.1" id="Raw" xmlns="http://www.w3.org/2000/svg" xmlns:xlink="http://www.w3.org/1999/xlink" x="0px" y="0px"
	 viewBox="0 0 256 256" style="enable-background:new 0 0 256 256;" xml:space="preserve">
<style type="text/css">
	.st0{fill:#1FDA8A;}
</style>
<path class="st0" d="M243.2,183.8c30.8-63.6,4.2-140.1-59.4-170.9c-7.3-3.5-14.9-6.4-22.8-8.5c-0.2-0.1-0.4-0.1-0.7-0.2
	C119.8-6.4,76.6,3.5,44.8,30.8c-0.6,0.4-1.2,0.9-1.6,1.4c-52.9,46.8-57.8,127.7-11,180.6C56.4,240.3,91.3,256,128,256
	c0.9,0,1.8,0,2.7,0c0,0,0,0,0.1,0c0,0,0.1,0,0.1,0c47.4-1.1,90.2-28.3,111.5-70.6l0,0C242.7,184.8,243,184.3,243.2,183.8z
	 M236.3,128c0,12.9-2.3,25.7-6.8,37.8l-57.1-35.1c-2.3-1.4-5-2.4-7.7-2.7l-28.1-3.8c-7.4-1-14.6,2.3-18.9,8.4h-10.5l-4.7-9.7
	c-2.6-5.5-7.7-9.4-13.6-10.7l-8.1-1.7l3.1-7.4c1.5-3.6,5.1-6,9.1-6h19.7c3.3,0,6.6-0.8,9.5-2.5l15.1-8.3c1.3-0.7,2.6-1.6,3.7-2.6
	l33.1-30c5.8-5.2,8-13.5,5.5-20.9C214.5,51.8,236.3,88.3,236.3,128z M19.7,128c0-17,4-33.7,11.6-48.8l12.8,34.2
	c2.3,6.3,7.7,10.9,14.3,12.3l6.8,1.5l0.1,0l14.8,3.2c3,0.6,5.5,2.6,6.8,5.3l2.6,5.3c3.3,6.8,10.2,11.1,17.7,11.1h1.4l-9.5,21.2
	c-3.2,7.2-1.8,15.6,3.5,21.4l19.8,21.4c2.1,2.3,3,5.5,2.4,8.6l-2.2,11.4C65,233.2,19.8,185.7,19.7,128z"/>
</svg>
