<?xml version="1.0" encoding="utf-8"?>
<!-- Generator: Adobe Illustrator 23.0.1, SVG Export Plug-In . SVG Version: 6.00 Build 0)  -->
<svg version="1.1" id="Raw" xmlns="http://www.w3.org/2000/svg" xmlns:xlink="http://www.w3.org/1999/xlink" x="0px" y="0px"
	 viewBox="0 0 256 256" style="enable-background:new 0 0 256 256;" xml:space="preserve">
<style type="text/css">
	.st0{fill:#FF656B;}
</style>
<path class="st0" d="M128,0C72.5,0.1,27.5,45.1,27.4,100.6c0,86.1,91.4,151.1,95.3,153.8c3.2,2.2,7.3,2.2,10.5,0
	c3.9-2.7,95.3-67.7,95.3-153.8C228.5,45.1,183.5,0.1,128,0z M128,64c20.2,0,36.6,16.4,36.6,36.6s-16.4,36.6-36.6,36.6
	s-36.6-16.4-36.6-36.6C91.4,80.4,107.8,64,128,64C128,64,128,64,128,64z"/>
</svg>
