<?xml version="1.0" encoding="utf-8"?>
<!-- Generator: Adobe Illustrator 23.0.1, SVG Export Plug-In . SVG Version: 6.00 Build 0)  -->
<svg version="1.1" id="Raw" xmlns="http://www.w3.org/2000/svg" xmlns:xlink="http://www.w3.org/1999/xlink" x="0px" y="0px"
	 viewBox="0 0 256 256" style="enable-background:new 0 0 256 256;" xml:space="preserve">
<style type="text/css">
	.st0{fill:#FFAB2E;}
</style>
<path class="st0" d="M247.7,118.9v91.4c0,25.2-20.5,45.7-45.7,45.7h-65.7c-5,0-9.1-4.1-9.1-9.1s4.1-9.1,9.1-9.1H202
	c15.1,0,27.4-12.3,27.4-27.4v-1.6c-2.9,1-6,1.6-9.1,1.6H202c-15.1,0-27.4-12.3-27.4-27.4v-45.7c0-15.1,12.3-27.4,27.4-27.4h27
	c-4.8-52.1-48.6-91.8-100.9-91.4c0,0-0.1,0-0.1,0C75.6,17.9,31.8,57.6,27,109.7h27c15.1,0,27.4,12.3,27.4,27.4v45.7
	c0,15.1-12.3,27.4-27.4,27.4H35.7c-15.1,0-27.4-12.3-27.4-27.4v-64C8.3,53.2,61.5,0,127.2,0c0.3,0,0.6,0,0.8,0c0.3,0,0.6,0,0.8,0
	C194.5,0,247.7,53.2,247.7,118.9z"/>
</svg>
