<?xml version="1.0" encoding="UTF-8"?><svg id="Clients_Logo" xmlns="http://www.w3.org/2000/svg" viewBox="0 0 400 400"><defs><style>.cls-1{fill:#101111;}</style></defs><g id="Lampoo"><path class="cls-1" d="M299.22,177.16c1.3,.09,2.6,.15,3.9,.29,4.86,.49,9.55,1.61,13.77,4.19,5.48,3.34,8.55,8.27,9.47,14.57,.58,3.97,.32,7.89-.98,11.7-1.71,5.01-5.03,8.65-9.67,11.13-3.3,1.76-6.84,2.73-10.52,3.25-4.9,.69-9.82,.7-14.73,.26-4.6-.41-9.04-1.46-13.1-3.74-5.82-3.26-9.19-8.22-10.2-14.78-.63-4.11-.38-8.16,1-12.1,1.76-5.05,5.17-8.67,9.89-11.12,3.37-1.75,6.99-2.7,10.74-3.17,1.71-.21,3.43-.29,5.15-.43,.09,0,.18-.03,.27-.05,1.68,0,3.36,0,5.03,0Zm-2.51,38.11c.7,0,1.4,.02,2.1,0,2.78-.11,5.5-.52,8.1-1.54,3.9-1.52,6.76-4.1,8.2-8.1,.94-2.62,1.12-5.33,.77-8.07-.32-2.52-1.17-4.84-2.76-6.86-2.09-2.66-4.9-4.18-8.09-5.08-3.05-.85-6.18-1-9.32-.95-2.89,.05-5.73,.38-8.47,1.32-3.43,1.19-6.23,3.18-8.02,6.42-1.14,2.08-1.66,4.33-1.77,6.68-.14,3.03,.35,5.94,1.85,8.61,1.86,3.3,4.78,5.25,8.31,6.4,2.96,.95,6.01,1.23,9.1,1.17Z"/><path class="cls-1" d="M362.61,177.16c1.28,.09,2.57,.15,3.85,.28,5.09,.52,9.97,1.71,14.32,4.53,4.86,3.15,7.74,7.64,8.77,13.3,.77,4.24,.58,8.43-.8,12.53-1.74,5.19-5.19,8.91-10.02,11.4-3.42,1.76-7.09,2.69-10.88,3.18-4.3,.55-8.61,.56-12.93,.26-4.54-.31-8.94-1.21-13.06-3.23-6.1-2.99-9.91-7.78-11.21-14.46-.88-4.5-.64-8.95,.93-13.28,1.9-5.23,5.56-8.86,10.54-11.23,3.18-1.52,6.55-2.38,10.04-2.8,1.71-.21,3.43-.29,5.15-.43,.09,0,.18-.03,.27-.05,1.68,0,3.36,0,5.03,0Zm-2.54,38.14c3.2,.03,6.36-.26,9.41-1.29,3.18-1.08,5.85-2.85,7.68-5.72,1.55-2.42,2.17-5.12,2.22-7.95,.05-3.14-.57-6.13-2.33-8.8-2.01-3.05-4.95-4.8-8.38-5.81-3.15-.93-6.38-1.09-9.64-1.03-2.68,.04-5.33,.33-7.9,1.14-3.08,.96-5.75,2.55-7.69,5.2-1.6,2.19-2.39,4.68-2.61,7.35-.25,3.03,.11,5.98,1.48,8.73,1.71,3.44,4.56,5.56,8.12,6.82,3.12,1.1,6.35,1.4,9.63,1.38Z"/><path class="cls-1" d="M194.24,191.84c-1.28,1.86-2.56,3.73-3.84,5.59-5.53,8.06-11.05,16.11-16.57,24.17-.16,.23-.32,.32-.6,.32-3.11,0-6.22-.01-9.32,0-.34,0-.52-.12-.71-.39-6.69-9.77-13.4-19.54-20.1-29.31-.09-.13-.18-.25-.35-.49v30.16h-10.65v-43.79c.15,0,.29-.03,.44-.03,3.88,0,7.77,0,11.65,0,.32,0,.49,.11,.67,.37,7.77,10.95,15.56,21.9,23.34,32.85,.1,.14,.2,.27,.34,.45,.55-.77,1.08-1.51,1.61-2.25,7.37-10.36,14.74-20.73,22.12-31.09,.11-.15,.33-.31,.5-.31,3.99-.02,7.99-.01,11.98-.01,.06,0,.12,.01,.22,.02v43.79h-10.62v-30.02s-.08-.02-.11-.03Z"/><path class="cls-1" d="M210.42,178.07c.2,0,.37,0,.54,0,11.48,0,22.97-.06,34.45,.03,5.58,.04,10.43,2.06,14.32,6.13,2.37,2.49,3.56,5.5,3.48,8.95-.08,3.53-1.49,6.52-3.95,9.02-3.47,3.51-7.73,5.42-12.59,6.04-1.15,.15-2.32,.18-3.49,.18-7.16,.02-14.33,0-21.49,0-.18,0-.37,0-.61,0v13.47h-10.66v-43.82Zm10.68,8.13v14.03c.12,0,.21,.02,.3,.02,7.1,0,14.2,.02,21.3-.01,2.78-.01,5.28-.9,7.35-2.82,1.59-1.47,2.4-3.27,1.99-5.47-.31-1.7-1.42-2.86-2.79-3.79-2.19-1.48-4.66-1.97-7.25-1.97-6.79,0-13.58,0-20.37,0-.17,0-.33,0-.53,0Z"/><path class="cls-1" d="M128.14,222.01c-2.3,0-4.5,0-6.71,0-1.32,0-2.64-.02-3.96,.01-.42,0-.66-.12-.88-.48-1.74-2.91-3.51-5.81-5.25-8.72-.19-.31-.38-.44-.76-.44-9.79,.01-19.58,.01-29.36,0-.37,0-.58,.11-.77,.43-1.77,2.95-3.56,5.89-5.33,8.84-.13,.22-.24,.38-.56,.38-3.53-.01-7.05,0-10.58-.01-.09,0-.17-.01-.33-.02,.31-.52,.6-1,.88-1.47,8.47-14.01,16.94-28.01,25.4-42.02,.24-.4,.49-.53,.95-.53,3.4,.02,6.8,.02,10.21,0,.34,0,.52,.11,.69,.4,8.66,14.33,17.32,28.65,25.98,42.97,.12,.2,.23,.4,.39,.67Zm-32.25-34.72c-3.65,6.03-7.24,11.97-10.85,17.94h21.7c-3.62-5.99-7.21-11.92-10.85-17.94Z"/><path class="cls-1" d="M59.69,213.15v8.72H10v-43.83h10.62v35.11H59.69Z"/></g></svg>