<?xml version="1.0" encoding="utf-8"?>
<!-- Generator: Adobe Illustrator 26.3.1, SVG Export Plug-In . SVG Version: 6.00 Build 0)  -->
<svg version="1.1" id="Clients_Logo" xmlns="http://www.w3.org/2000/svg" xmlns:xlink="http://www.w3.org/1999/xlink" x="0px"
	 y="0px" viewBox="0 0 400 400" style="enable-background:new 0 0 400 400;" xml:space="preserve">
<style type="text/css">
	.st0{fill:#101111;}
</style>
<g id="Mentra">
	<path class="st0" d="M12.3,231.2L0,218.7l50.5-51l10.3,10.4C70,187.4,75,199.7,75,212.8v18.3H57.6v-18.3c0-7.4-2.6-14.4-7.2-20.1
		L12.3,231.2z"/>
	<path class="st0" d="M140.9,231.2l-38.1-38.4c-4.7,5.6-7.2,12.6-7.2,20.1v18.3H78.2v-18.3c0-13.1,5.1-25.4,14.3-34.6l10.3-10.4
		l50.5,51L140.9,231.2L140.9,231.2z"/>
	<path class="st0" d="M340.6,224.3c-3.5,0.7-8.5,1.8-8.5-4.2v-20.1h9.3v-6.1h-9.3v-12h-8.1v12h-6.7v6.1h6.7v20.7
		c0.1,2.6,0.5,4.6,1.5,6.3c1.8,3,5,4.8,9.2,4.8c2.4,0,4.7-0.5,5.8-1L340.6,224.3"/>
	<path class="st0" d="M384.7,192.7c-5.8,0-10.6,1.8-14.5,6.7l4.7,4.8c2.3-2.6,5.1-4.8,9.8-4.8c4.7,0,7.6,2.3,7.6,6.4v1.3l-8.4,1.6
		c-5.2,1-9.2,2.4-12.2,4.4c-2.9,1.9-4.3,4.7-4.3,8.7c0,7.1,5.6,10.5,13.2,10.5c5.6,0,9.8-1.9,12.2-5.4v4.2h7.2v-25.4
		C400,197.8,394.7,192.7,384.7,192.7z M392.3,216.5L392.3,216.5c0,5.9-4.6,9.3-10.6,9.3c-4,0-6.4-1.7-6.4-4.4
		c0-3.8,3.3-5.3,10.6-6.9l6.4-1.3V216.5z"/>
	<path class="st0" d="M237.9,178.5v52.5h-8.4v-26.5c0-4.5,0.1-11,0.3-19.6l-3.5,11l-2.8,8.6l-8.7,26.5h-7.6l-8.9-26.5
		c-0.7-2.2-1.4-4.4-2.2-6.6l-4.1-12.6c0.1,8.4,0.1,14.8,0.1,19.2v26.4h-8.3v-52.5h13.7l7.4,22.2c2.7,7.8,4.7,14.3,6.1,19.4
		c1.4-5,3.4-11.5,6-19.4l7.3-22.2L237.9,178.5L237.9,178.5z"/>
	<g>
		<path class="st0" d="M261.6,225.3c-6.7,0-10.5-4.4-11.1-11h27c0.1-1,0.1-2.1,0.1-3.3c0-11.3-6.1-18.3-16.9-18.3
			c-11.1,0-18.1,8.4-18.1,20c0,11.8,7.2,19.5,18.8,19.5c6.2,0,11-2.1,16.3-7.5l-4.7-5C268.4,223.9,265.9,225.3,261.6,225.3z
			 M260.5,199.2c5.6,0,8.9,3.6,9.2,9.3h-19C251.8,202.6,255.2,199.2,260.5,199.2z"/>
		<polygon class="st0" points="277.7,224.7 277.7,224.7 277.7,224.7 		"/>
	</g>
	<path class="st0" d="M314.4,231.1h-8.1v-22.9c0-5.4-2.7-8.4-7.6-8.4c-4.8,0-8.3,3.6-8.3,8.7v22.7h-8.1v-37.2h7.5v4.5
		c2.3-3.6,6.4-5.7,11.4-5.7c8.4,0,13.2,5.3,13.2,12.9L314.4,231.1L314.4,231.1L314.4,231.1z"/>
	<path class="st0" d="M354.4,199.9c2.6-5.2,7.2-6.6,10.7-6.6c0.8,0,1.5,0.1,2.3,0.2v7.7c-0.7-0.2-1.8-0.3-3-0.3
		c-5.6,0-9.4,3.7-9.4,11.4v18.8h-8.1v-37.2h7.5L354.4,199.9"/>
</g>
</svg>
