<?xml version="1.0" encoding="utf-8"?>
<!-- Generator: Adobe Illustrator 23.0.1, SVG Export Plug-In . SVG Version: 6.00 Build 0)  -->
<svg version="1.1" id="Clients_Logo" xmlns="http://www.w3.org/2000/svg" xmlns:xlink="http://www.w3.org/1999/xlink" x="0px"
	 y="0px" viewBox="0 0 400 400" style="enable-background:new 0 0 400 400;" xml:space="preserve">
<path id="Paradox_Interactive" d="M103.8,218.2h3.6v13.4h-3.6V218.2z M136,218.2h3.5v13.4h-3.9l-7.3-9.3l0,0v9.4h-3.5v-13.5h4.2
	l7.1,9.4l0,0L136,218.2L136,218.2z M160.5,220.8h-5v-2.6h13.6v2.6h-5v10.9h-3.7L160.5,220.8L160.5,220.8z M185.1,218.2h12.6v2.6
	h-8.9v2.8h8.5v2.5h-8.5v3.1h9v2.6h-12.6v-13.6H185.1z M214.5,218.2h9.9c3.7,0,4.4,2.3,4.4,3.6c0.1,1.5-0.8,2.8-2.2,3.2l0,0
	c1.6,0.2,1.9,2.3,1.9,3.6c-0.1,1,0.2,2,0.7,2.9h-3.9c-0.3-0.8-0.5-1.7-0.4-2.6c0-2-0.8-2.3-2-2.3h-4.5v4.9h-3.6v-13.4h-0.3V218.2z
	 M218.1,224.1h4.8c0.9,0.1,1.7-0.6,1.8-1.5c0-0.1,0-0.1,0-0.2c0-0.9-0.7-1.7-1.6-1.7c-0.1,0-0.2,0-0.3,0H218L218.1,224.1
	L218.1,224.1z M254.8,228.8h-6.2l-1.1,2.8h-3.9l5.9-13.4h4.4l5.9,13.4h-3.9L254.8,228.8z M251.8,221.1l-2.1,5.3h4.2L251.8,221.1z
	 M286.9,223.2c-0.3-1.8-2-3.1-3.8-2.9c-2.2-0.1-4.1,1.6-4.2,3.8c0,0.2,0,0.5,0,0.7c-0.3,2.2,1.3,4.2,3.5,4.5c0.2,0,0.5,0,0.7,0
	c1.9,0.2,3.5-1.1,3.8-3h3.9c-0.5,3.9-3.7,5.5-7.9,5.5c-4.9,0-7.9-2.1-7.9-7.1s3.1-7.1,7.9-7.1c3.2,0,7.4,0.8,7.9,5.5h-3.9V223.2z
	 M311.1,220.7h-5v-2.5h13.6v2.6h-5v10.9h-3.6V220.7L311.1,220.7z M335.6,218.2h3.6v13.4h-3.6V218.2z M354.9,218.2h3.9l3.9,10.2
	l3.9-10.2h3.9l-5.9,13.4h-3.9L354.9,218.2z M386.2,218.2h12.6v2.6h-8.9v2.8h8.5v2.5h-8.5v3.1h9v2.6h-12.6L386.2,218.2L386.2,218.2z
	 M103.5,177h12.3v3.3h0.1c2.3-2.6,5.8-4.1,11.4-4.1c8.2,0,15.8,4.5,15.8,14.8s-7.5,14.8-15.8,14.8c-5.2,0-8.8-1.3-11-3.9h-0.1v12.8
	h-12.7C103.5,214.7,103.5,177,103.5,177z M123.2,197.3c4.6,0,6.9-2.7,6.9-6.3s-2-6.3-7-6.3c-4.9,0-7,2.3-7,6.3
	S118.3,197.3,123.2,197.3L123.2,197.3z M148.6,185.5c0.3-3.3,2.3-6.2,5.4-7.7c3.1-1.4,7.7-2,14.4-2c12.9,0,18,2.9,18,11.2v13.5
	c-0.1,1.5,0.3,3,1.2,4.3h-12.9c-0.3-0.9-0.4-1.8-0.5-2.7c-2.8,2.6-7.2,3.9-13.9,3.9c-8.5,0-13.9-2.3-13.9-9.4c0-5.1,3.6-8.3,13-8.7
	l10.7-0.5c2.5-0.2,3.4-0.8,3.4-2.3c0-1.8-2.3-2.7-5.9-2.7c-2.9,0-5.8,0.5-6.4,3.2L148.6,185.5L148.6,185.5z M173.8,192.2
	c-2.1,0.5-5.7,0.8-10.2,1.2c-2.3,0.2-3.4,1-3.4,2.7s1.6,3.2,4.7,3.2c4.3,0,9-1.1,9-5.9v-1.2H173.8z M193.2,177.1h12.3v5.3h0.1
	c2.7-3.8,7.1-6.1,11.8-6.1c1.4,0,2.8,0.1,4.2,0.3V188c-2.1-0.6-4.2-0.9-6.3-1c-4.5,0-9.3,1.5-9.3,7.4v10.4h-12.7L193.2,177.1
	L193.2,177.1z M226,185.5c0.4-3.3,2.4-6.2,5.5-7.6c3.1-1.4,7.7-2,14.4-2c12.9,0,18,2.9,18,11.2v13.4c-0.1,1.5,0.3,3,1.2,4.3h-13
	c-0.3-0.9-0.4-1.8-0.5-2.7c-2.8,2.6-7.2,3.9-13.9,3.9c-8.5,0-13.9-2.3-13.9-9.4c0-5.1,3.6-8.3,13-8.7l10.7-0.5
	c2.5-0.2,3.4-0.8,3.4-2.3c0-1.8-2.3-2.7-5.9-2.7c-2.9,0-5.8,0.5-6.4,3.2L226,185.5L226,185.5z M251.3,192.2
	c-2.1,0.5-5.7,0.8-10.2,1.2c-2.3,0.2-3.4,1-3.4,2.7s1.6,3.2,4.7,3.2c4.3,0,9-1.1,9-5.9v-1.2H251.3z M296.4,201.9L296.4,201.9
	c-2.4,2.6-5.9,4.1-11.5,4.1c-8.2,0-15.8-4.5-15.8-14.8s7.5-14.8,15.8-14.8c5.2,0,8.8,1.3,11,3.9h0.1v-13h12.7v37.4h-12.3
	L296.4,201.9L296.4,201.9z M289,184.7c-4.6,0-6.9,2.7-6.9,6.3s2,6.3,7,6.3s7-2.3,7-6.3S293.8,184.7,289,184.7z M334.4,175.8
	c14.3,0,20.5,4.8,20.5,15s-6.2,15-20.5,15s-20.5-4.8-20.5-15S320.2,175.9,334.4,175.8L334.4,175.8z M334.4,197.5
	c5.1,0,7.2-2.3,7.2-6.8s-2.1-6.7-7.2-6.7s-7.2,2.5-7.2,6.9s2.1,6.8,7.2,6.8V197.5z M356.7,204.6l12.8-14.5l-11.7-13.2h15.5l5,7.4
	l5-7.4h15.5L387,190.1l13,14.5h-16.1l-5.5-7.9l-5.5,7.9H356.7L356.7,204.6z M87.9,202.4c-0.5-2.6,2.2-4.9,0.9-7.6
	c-1.3-2.7-7.6-2.5-7.7-5.6c-0.1-3.6,5.1-1.8,7.2-1.7c0-5.7-2.2-10.6-8.4-6.8c-1.1,0.1-2.2-0.3-2.9-1.1c-2-3.4,3.8-4.1,3.9-6.8
	c0-1.6-1.9-2.6-2.4-3.9c-0.2-0.9-0.2-1.9,0-2.9c0-0.4-0.5-0.4-0.7-0.5c-1.2-0.3-2.2,0.4-3.4,0.1c-1.1-0.5-2.2-1.2-3.2-2
	c-0.3,0.6-0.6,1.1-1.1,1.5c-0.9,1.2-3.9,5.5-5.9,3.6c-0.6-0.9-0.8-2-0.5-3c1-7.5-1.7-8.3-8.2-9.3c-1.6-0.3-5.6-1.2-7.4-0.7
	c0,1.3,1.6,10.1-1.2,9.6c-3.4,0-1.5-8.8-6.4-9.9c-0.9,0.1-1.7,0.5-2.4,1.2c-0.7,1,0.7,4.1,1,5.3c0.4,1.6,0.3,3.2-0.2,4.7v0.3
	c-5.6,0-4.9-12.3-13.6-6.2c0,3.3,7.9,7.4,5.1,11.1c-0.5,0.6-1.2,1.1-2,1.2c-4.2,0.5-5.9-8.6-10.5-7.7c-0.7,0.2-1.4,0.7-1.7,1.4
	c-1.2,2.1,3.9,5.2,4.7,7.3c0.3,1.1,0.2,2.3-0.1,3.3c-3.9,0-8.6-5.7-12.3-2.1c-0.7,0.5-1.1,1.3-1,2.2c0.4,1.5,3.1,1.2,3.9,2.7v0.2
	c1.4,3.2-1.8,5.5-1.9,8.4c0,1.4,1.1,2.2,0.6,3.8c-1.6,5.4-6.7-0.6-9.1,1.7s0.3,6.3,0.5,8.7c-0.2,1.5-0.5,2.9-0.9,4.3
	c0.2,1.3,0.6,2.6,1.3,3.7c0.5,1.7,0,3.6,0.9,5.1c2.7,4.2,7.3-7.3,9.5-2.4c1.7,3.9-6.8,3.7-7,6.7s4.8,5.6,6.8,7.5
	c1.8,1.6,3,3.9,3.4,6.3c0,2.4-0.5,4.7-1.4,7c0.8,0.2,1.6,0.2,2.4,0.1c4.3-1.3,6.8-8.1,6.1-12.4c-0.7-3.6-2.6-6.7-2.9-10.4
	s3.3-9.9,0-12.5l-0.5-0.3c-0.3,0.4-0.8,0.6-1.3,0.5c-0.7,0-1.4-0.2-2-0.7c-0.8-0.5-1.1-1.5-0.6-2.3c0,0,0,0,0-0.1
	c0.8-1.2,3.2-1,3.4-2.6c0.6-3.6-7-4.3-2.4-8.8c0.9-0.9,2.2-1.4,3.5-1.3c2.1,0.2,7.3,1.7,7,4.4c-0.1,1.2-1.2,2.4-0.7,3.8
	c0.5,1.4,2.6,1.3,3.1,2.6c0.7,1.8-0.8,3.2-0.6,4.9c0,0.4,0.2,0.7,0.6,0.8c0.9,0.3,1.6,0.8,2.3,1.5c1,2.1-1.6,4.7,1.8,5.9
	c0-1.5-0.3-3.5,1-4.3c0.2,0.5,0.6,0.9,1,1.2c1.1,1.7,1.5,3.3,3.7,3.9c-0.1-2.1-0.7-4.2-1.7-6c1.6,0,2.6,2.1,4.4,1.6
	c1.8-0.5,0.2-2.3-0.2-3c-1.1-2.2,0.5-3.9-0.2-5.9s-6.5-3.9-8.3-5.6c-0.7-0.6-1.1-1.5-0.9-2.4c1.1-3.3,5-1.4,7.9-2.1
	c1.3-0.5,2.4-1.2,3.2-2.3c1.4-1.5,2-3.6,1.4-5.6c-0.7-1-1.1-2.2-1.1-3.4c0.8-6,10.6-5.7,14.8-3.5c2.2,1.1,4.2,3.7,3.1,6.3
	c-1,2.3-3.8,1-5.7,1.8c-2.1,1.5-3.6,3.5-4.5,5.9s1.6,4.3,1.7,6.7c0.3,5.2-2.1,10-3.2,14.7c-0.2,0.9,0.6,2,0.1,2.8
	c-0.7,1.3-2.3,0.8-3.6,1.3c-0.8,0.5-1.6,1-2.3,1.7c-1.8,1.1-3.9,1.7-4.2,4.2c1.1,0,2-0.6,3.2-0.7c0.1,0,0.2,0.1,0.3,0.2
	c0,0,0,0,0,0.1v0.2c-0.3,2.2-2,3.9-1,6.3c1.5,0,2-3.6,4.5-2.6c0.3,0,0.3,0,0.3,0.3c0.3,1.6,0.9,3.1,1.6,4.6c0.5-0.1,0.9-0.5,0.8-1
	c-0.2-1.7-0.2-3.5,0.2-5.2c0.7-2,2.1-1.7,1.8-4.3c0.5-0.2,0.9-0.5,1.3-0.8c3.1-1.1,3.6-2.9,7.6-2.8c0.9,0,1.9,0.1,2.7,0.5
	c0.7,0,0.4-1.1,0.2-2c-1.4-4.6-3.2-9.2-3.2-14.5h0.7c0.8,1.6,1.7,3.1,2.8,4.5c0.6,0.9,2.5,5.3,4.2,4.4c0.8-0.5,1.3-5.9,1.7-7.2
	c1.7-4.5,6.4-5.5,9.2-1.1c2.8,4.4,1,12.8-2.4,16c-1.3,1.2-3.2,1.2-4.5,2.4s-0.1,3.5-0.4,5.1c-0.3,1.5-1.1,2.9-2.3,3.9
	c-2.4,2.4-5.6,3.4-8,5.6c-1,0.9-1.3,2.5-2.6,3c-1.3,0.6-2.8-0.2-4.1,0.2l-2.9,1.8c-1.8,0.9-4.6,2.5-5.6,2.8c0,3.8,9,1.8,10.9,0.8
	c1.3-0.7,1.7-2.4,3-3s2.6,0.8,4.1,0.3c1.4-0.7,2.7-1.5,3.9-2.4c2.4-1.5,4.8-3.1,7-4.9c0.9-0.6,1.7-1.5,2.2-2.4
	c0.6-1.6-2-5.5,2.5-4.9c3.5,0.5,6.9-6.5,7.6-9c0.4-2,0.8-3.8,1.1-5.8l1.4-3.5C90.9,204.4,88.3,204.4,87.9,202.4z M9.3,209.8
	c-1.8,0.3-3.5-0.9-3.8-2.7c-0.1-0.7,0-1.5,0.4-2.1c0.5-0.9,1.3-1.6,2.2-2c1,0,2,0.3,2.8,0.9c1.5,1.1,1.7,3.2,0.6,4.7
	C10.9,209.2,10.1,209.6,9.3,209.8z M27.8,189.5c-0.3,0-0.7,0-1-0.2c-3.5-1.5-2.1-3.8-0.7-6.3C28.8,184.1,29.4,188.7,27.8,189.5z
	 M32.8,199.8c2.4,1,4.1,3.2,4.3,5.8c0,0.3-0.1,0.6-0.3,0.8c-0.6,0.2-1.2,0.2-1.8,0C32.3,205.3,32.7,202.4,32.8,199.8L32.8,199.8z
	 M58.8,211.4c-0.1,1-0.6,1.8-1.4,2.4c-1.2,0.1-2.4-0.6-2.8-1.7c-0.2-1.1-0.2-2.2,0-3.3c0.1-3.8,0.7-7.5,1.8-11.1
	c1.2,2.7,0.8,5.9,1.4,8.9C58.3,208.1,58.7,209.7,58.8,211.4L58.8,211.4z M76.5,195.5c-1.6,0.1-3.3,0.1-4.9-0.1
	c-6.2-1.2-0.8-8.2,0.5-11C74.6,186.7,77.4,191.9,76.5,195.5z"/>
</svg>
