<?xml version="1.0" encoding="utf-8"?>
<!-- Generator: Adobe Illustrator 26.5.0, SVG Export Plug-In . SVG Version: 6.00 Build 0)  -->
<svg version="1.1" id="Rapha" xmlns="http://www.w3.org/2000/svg" xmlns:xlink="http://www.w3.org/1999/xlink" x="0px" y="0px"
	 viewBox="0 0 400 400" style="enable-background:new 0 0 400 400;" xml:space="preserve">
<style type="text/css">
	.st0{fill:#101111;}
</style>
<path id="Rapha_00000042707676368256350860000000508534883025714099_" class="st0" d="M335.6,207.8c3.2,0,6.2,2.6,6.2,6.2
	s-2.9,6.2-6.2,6.2c-3.6,0-6.5-2.6-6.5-6.2S332,207.8,335.6,207.8z M319.6,210.1c1.3,1.3,1,4.5-1.9,6.8c-10.4,9.4-21.1,2.6-17.2-8.8
	c-3.9,3.6-7.1,7.5-14.3,10.7c-8.1,3.9-16.6,1.6-16.9-7.1c-1.3,1.3-3.2,2.9-5.5,4.9c-8.4,6.8-14.9,6.2-18.8,2.9
	c-2.9-2.9-3.2-9.1,2.9-16.9c5.5-7.1,9.4-11.4,6.8-13.3c-1.6-1-8.4,0.6-15.6,8.8c-5.8,6.2-11.4,15.3-13.6,20.5
	c-1.6,3.6-4.5,4.2-7.1,3.2c-3.2-1.3-2.3-5.2,0.3-10.4c-1.6,1.3-3.2,3.2-5.8,5.2c-8.4,6.8-15.3,6.2-18.8,2.9
	c-2.9-2.9-3.2-9.1,2.9-16.9c5.5-7.1,9.1-11.4,6.5-13.3c-2.3-1.6-14.9,3.2-24.7,22.4c-10.4,19.8-16.9,37.3-20.5,45.4
	c-2.3,5.8-4.9,8.1-8.8,7.8c-4.2-0.3-5.8-3.6-2.6-10.7c4.9-10.4,13-25.3,19.5-39c-0.6,0.3-1.3,1-1.6,1.3c-13,10.4-21.4,2.3-17.2-8.4
	c-3.6,3.6-6.8,7.5-14,10.7c-7.1,3.6-14.3,1.9-16.6-3.9c-2.9,2.6-6.5,5.5-12,6.5c-14.6,2.3-20.1-12.3-20.5-23H82
	c-2.9,5.5-6.5,11.7-10.4,18.2c-3.2,5.2-6.8,6.8-10.7,5.5c-3.6-1-3.6-6.2,0.3-11c8.1-10.7,12-16.6,20.5-29.2c2.3-3.6,4.9-3.6,7.1-2.9
	c1,0.6,1.6,1.6,1.6,2.9c2.6,1,2.9,3.2,2.9,7.1v0.6c12-3.2,23.4-9.7,24.7-21.8c1.3-9.7-5.5-17.2-17.2-16.2
	c-15.6,1.3-24.7,10.7-27.3,18.8c-1.3,4.9-6.2,6.8-8.4,6.8c-3.6,0-6.2-3.9-3.2-9.1c3.9-7.5,20.1-25,44.5-25.6
	c17.5-0.3,27.3,12,24.3,26.3c-3.2,15.3-19.2,24.7-36.4,28.2c1.6,7.8,5.8,14.6,13.6,14.3c4.2,0,7.5-2.9,9.1-5.2
	c3.9-14.9,18.8-25,28.9-25c4.5,0,7.5,1.9,9.4,4.2c1.9-1.3,3.6-1.9,5.5-1.6c3.9,0.3,5.2,3.2,4.2,5.5c-0.6,1.6-5.5,10.7-6.8,16.6
	c-1.3,5.8,1.6,5.5,3.2,4.5c7.5-3.2,12.7-13,14.6-18.2c3.9-10.7,5.8-12.3,9.7-11c2.9,1,3.2,5.2,0.3,10.1c3.6-3.9,6.8-7.5,14-11
	c5.5-2.3,11-2.3,14.3,0.6c4.9,4.2,2.3,11.4-5.8,20.8c-5.2,5.8-5.8,9.4-3.6,10.1c1.3,0.6,3.2,0,4.9-1c10.4-6.8,18.2-18.8,22.4-27.6
	c6.5-14,12-26.6,18.8-40.6c2.9-6.2,6.5-8.1,10.4-7.5c3.9,1,3.9,4.9,1,9.7c-6.2,10.4-15.6,28.6-23.4,44.1c3.2-2.9,6.5-5.8,12.3-8.8
	c5.2-2.3,10.7-2.3,14,0.6c4.9,4.2,2.6,11.4-5.8,20.8c-5.2,5.8-5.8,9.4-3.2,10.1c1,0.6,2.9,0,4.5-1c5.2-3.6,9.7-9.1,13.3-14.3
	c6.2-9.4,16.9-15.3,24.3-15.3c4.9,0,7.8,1.9,9.7,4.2c1.6-1.3,3.2-1.9,5.2-1.6c4.2,0.3,5.5,3.2,4.5,5.5c-0.6,1.6-5.8,10.7-7.1,16.6
	c-1.3,5.8,1.3,5.8,2.9,4.5C315.8,209.1,318,208.5,319.6,210.1L319.6,210.1z M135.9,208.8c6.2-3.6,10.1-8.4,12.7-12.7
	c-1.3-2.3-3.2-4.9-7.5-4.9c-3.6,0-10.1,4.2-12.3,11.7C126.2,210.4,131.7,211.7,135.9,208.8z M288.8,208.8c5.8-3.6,9.7-8.4,12.3-12.7
	c-1-2.3-3.2-4.9-7.5-4.9c-3.9,0-9.7,4.2-12.3,11.7C278.7,210.4,284.6,211.7,288.8,208.8z"/>
</svg>
