<?xml version="1.0" encoding="utf-8"?>
<!-- Generator: Adobe Illustrator 23.0.1, SVG Export Plug-In . SVG Version: 6.00 Build 0)  -->
<svg version="1.1" id="Raw" xmlns="http://www.w3.org/2000/svg" xmlns:xlink="http://www.w3.org/1999/xlink" x="0px" y="0px"
	 viewBox="0 0 256 256" style="enable-background:new 0 0 256 256;" xml:space="preserve">
<style type="text/css">
	.st0{fill:#055463;}
</style>
<path class="st0" d="M256,88.4c0-0.1,0-0.3,0-0.4c0-0.2,0-0.4-0.1-0.7c0-0.1,0-0.3-0.1-0.4c0-0.3-0.1-0.5-0.2-0.8c0-0.1,0-0.1,0-0.2
	L238,24.1c-2.4-8.4-10.2-14.3-18.9-14.3H37c-8.8,0-16.5,5.8-18.9,14.3L0.4,85.9c0,0.1,0,0.1,0,0.2c-0.1,0.3-0.1,0.5-0.2,0.8
	c0,0.1,0,0.3-0.1,0.4c0,0.2-0.1,0.4-0.1,0.7c0,0.1,0,0.3,0,0.4c0,0.1,0,0.2,0,0.2v19.7c0,15.5,7.3,30.1,19.7,39.4v78.8
	c0,10.9,8.8,19.7,19.7,19.7h177.2c10.9,0,19.7-8.8,19.7-19.7v-78.8c12.4-9.3,19.7-23.9,19.7-39.4V88.6C256,88.5,256,88.5,256,88.4z
	 M19.7,98.5h59.1v9.8c0,16.3-13.2,29.5-29.5,29.5c-4.8,0-9.5-1.2-13.7-3.4c-0.7-0.5-1.4-1-2.2-1.3c-8.5-5.4-13.6-14.8-13.6-24.9
	V98.5z M157.5,108.3c0,16.3-13.2,29.5-29.5,29.5s-29.5-13.2-29.5-29.5v-9.8h59.1V108.3z M222.7,133.2c-0.8,0.3-1.5,0.8-2.2,1.3
	c-14.4,7.6-32.3,2-39.9-12.4c-2.2-4.2-3.4-9-3.4-13.7v-9.8h59.1v9.8C236.3,118.4,231.2,127.7,222.7,133.2z"/>
</svg>
