<?xml version="1.0" encoding="utf-8"?>
<!-- Generator: Adobe Illustrator 23.0.1, SVG Export Plug-In . SVG Version: 6.00 Build 0)  -->
<svg version="1.1" id="Raw" xmlns="http://www.w3.org/2000/svg" xmlns:xlink="http://www.w3.org/1999/xlink" x="0px" y="0px"
	 viewBox="0 0 256 256" style="enable-background:new 0 0 256 256;" xml:space="preserve">
<style type="text/css">
	.st0{fill:#FF656B;}
</style>
<path class="st0" d="M255.8,63.3l-14.4,79.2c-2.5,13.5-14.2,23.4-28,23.4H76l5.2,28.4h127.4c15.7,0,28.5,12.7,28.5,28.4
	s-12.7,28.5-28.4,28.5s-28.5-12.7-28.5-28.4c0-3.2,0.5-6.5,1.6-9.5h-69.6c5.3,14.8-2.5,31.1-17.3,36.3c-14.8,5.3-31.1-2.5-36.3-17.3
	c-3.4-9.6-1.4-20.3,5.2-28L30.9,23.7H9.5c-5.2,0-9.5-4.2-9.5-9.5s4.2-9.5,9.5-9.5h21.4c9.2,0,17,6.6,18.7,15.6l5.8,31.8h191.2
	c5.2,0,9.5,4.2,9.5,9.5C256,62.2,255.9,62.7,255.8,63.3z"/>
</svg>
