<?xml version="1.0" encoding="utf-8"?>
<!-- Generator: Adobe Illustrator 23.0.1, SVG Export Plug-In . SVG Version: 6.00 Build 0)  -->
<svg version="1.1" id="Layer_1" xmlns="http://www.w3.org/2000/svg" xmlns:xlink="http://www.w3.org/1999/xlink" x="0px" y="0px"
	 viewBox="0 0 108 168" style="enable-background:new 0 0 108 168;" xml:space="preserve">
<style type="text/css">
	.st0{fill:#666EFF;}
</style>
<path class="st0" d="M90,0H18C8.1,0,0,8.1,0,18v132c0,9.9,8.1,18,18,18h72c9.9,0,18-8.1,18-18V18C108,8.1,99.9,0,90,0z M18,12h72
	c3.3,0,6,2.7,6,6v6H12v-6C12,14.7,14.7,12,18,12z M90,156H18c-3.3,0-6-2.7-6-6v-6h84v6C96,153.3,93.3,156,90,156z"/>
</svg>
