<?xml version="1.0" encoding="utf-8"?>
<!-- Generator: Adobe Illustrator 23.0.1, SVG Export Plug-In . SVG Version: 6.00 Build 0)  -->
<svg version="1.1" id="Layer_1" xmlns="http://www.w3.org/2000/svg" xmlns:xlink="http://www.w3.org/1999/xlink" x="0px" y="0px"
	 viewBox="0 0 132 156" style="enable-background:new 0 0 132 156;" xml:space="preserve">
<style type="text/css">
	.st0{fill:#055463;}
</style>
<path class="st0" d="M120,0H12C5.4,0,0,5.4,0,12v132c0,6.6,5.4,12,12,12h108c6.6,0,12-5.4,12-12V12C132,5.4,126.6,0,120,0z M36,132
	c-5,0-9-4-9-9s4-9,9-9s9,4,9,9C45,128,41,132,36,132z M36,102c-5,0-9-4-9-9s4-9,9-9s9,4,9,9C45,98,41,102,36,102z M66,132
	c-5,0-9-4-9-9s4-9,9-9c5,0,9,4,9,9C75,128,71,132,66,132z M66,102c-5,0-9-4-9-9s4-9,9-9c5,0,9,4,9,9C75,98,71,102,66,102z M96,132
	c-5,0-9-4-9-9s4-9,9-9s9,4,9,9C105,128,101,132,96,132z M96,102c-5,0-9-4-9-9s4-9,9-9s9,4,9,9C105,98,101,102,96,102z M108,60
	c0,3.3-2.7,6-6,6c0,0,0,0,0,0H30c-3.3,0-6-2.7-6-6c0,0,0,0,0,0V30c0-3.3,2.7-6,6-6c0,0,0,0,0,0h72c3.3,0,6,2.7,6,6c0,0,0,0,0,0V60z"
	/>
</svg>
