<?xml version="1.0" encoding="utf-8"?>
<!-- Generator: Adobe Illustrator 23.0.1, SVG Export Plug-In . SVG Version: 6.00 Build 0)  -->
<svg version="1.1" id="Layer_1" xmlns="http://www.w3.org/2000/svg" xmlns:xlink="http://www.w3.org/1999/xlink" x="0px" y="0px"
	 viewBox="0 0 120 168" style="enable-background:new 0 0 120 168;" xml:space="preserve">
<style type="text/css">
	.st0{fill:#FE84BA;}
</style>
<path class="st0" d="M95.5,35.6L90.8,9.9C89.8,4.1,84.8,0,79,0H41c-5.8,0-10.8,4.1-11.8,9.9l-4.7,25.8c-26.7,19.5-32.5,57-13,83.7
	c3.6,5,8,9.3,13,13l4.7,25.8c1,5.7,6,9.9,11.8,9.9h38c5.8,0,10.8-4.1,11.8-9.9l4.7-25.8c26.7-19.5,32.5-57,13-83.7
	C104.8,43.6,100.4,39.3,95.5,35.6L95.5,35.6z M41,12h38l2.9,16.2c-14.1-5.6-29.8-5.6-43.8,0L41,12z M79,156H41l-2.9-16.2
	c14.1,5.6,29.8,5.6,43.8,0L79,156z M90,90H60c-3.3,0-6-2.7-6-6V54c0-3.3,2.7-6,6-6c3.3,0,6,2.7,6,6v24h24c3.3,0,6,2.7,6,6
	C96,87.3,93.3,90,90,90z"/>
</svg>
