<?xml version="1.0" encoding="utf-8"?>
<!-- Generator: Adobe Illustrator 23.0.1, SVG Export Plug-In . SVG Version: 6.00 Build 0)  -->
<svg version="1.1" id="Raw" xmlns="http://www.w3.org/2000/svg" xmlns:xlink="http://www.w3.org/1999/xlink" x="0px" y="0px"
	 viewBox="0 0 256 216.6" style="enable-background:new 0 0 256 216.6;" xml:space="preserve">
<style type="text/css">
	.st0{fill:#FFAB2E;}
</style>
<path class="st0" d="M236.3,0H19.7C8.8,0,0,8.8,0,19.7v187.1c0,5.4,4.4,9.8,9.8,9.8c1.5,0,3-0.4,4.4-1l35-17.5l35,17.5
	c2.8,1.4,6,1.4,8.8,0l35-17.5l35,17.5c2.8,1.4,6,1.4,8.8,0l35-17.5l35,17.5c4.9,2.4,10.8,0.5,13.2-4.4c0.7-1.4,1-2.9,1-4.4V19.7
	C256,8.8,247.2,0,236.3,0z M192,128H64c-5.4,0-9.8-4.4-9.8-9.8s4.4-9.8,9.8-9.8h128c5.4,0,9.8,4.4,9.8,9.8S197.4,128,192,128z
	 M192,88.6H64c-5.4,0-9.8-4.4-9.8-9.8c0-5.4,4.4-9.8,9.8-9.8h128c5.4,0,9.8,4.4,9.8,9.8C201.8,84.2,197.4,88.6,192,88.6z"/>
</svg>
