<?xml version="1.0" encoding="utf-8"?>
<!-- Generator: Adobe Illustrator 23.0.1, SVG Export Plug-In . SVG Version: 6.00 Build 0)  -->
<svg version="1.1" id="Raw" xmlns="http://www.w3.org/2000/svg" xmlns:xlink="http://www.w3.org/1999/xlink" x="0px" y="0px"
	 viewBox="0 0 256 256" style="enable-background:new 0 0 256 256;" xml:space="preserve">
<style type="text/css">
	.st0{fill:#1FDA8A;}
</style>
<path class="st0" d="M167.4,83.7V68.9h-14.8c-10.9,0-19.7,8.8-19.7,19.7v78.8c0,10.9,8.8,19.7,19.7,19.7h14.8v-14.8
	c0-10.9,8.8-19.7,19.7-19.7h49.2c10.9,0,19.7,8.8,19.7,19.7v49.2c0,10.9-8.8,19.7-19.7,19.7h-49.2c-10.9,0-19.7-8.8-19.7-19.7v-14.8
	h-14.8c-21.7,0-39.4-17.6-39.4-39.4v-29.5H78.8v9.8c0,10.9-8.8,19.7-19.7,19.7H19.7C8.8,167.4,0,158.6,0,147.7v-39.4
	c0-10.9,8.8-19.7,19.7-19.7h39.4c10.9,0,19.7,8.8,19.7,19.7v9.8h34.5V88.6c0-21.7,17.6-39.4,39.4-39.4h14.8V34.5
	c0-10.9,8.8-19.7,19.7-19.7h49.2c10.9,0,19.7,8.8,19.7,19.7v49.2c0,10.9-8.8,19.7-19.7,19.7h-49.2
	C176.2,103.4,167.4,94.6,167.4,83.7z"/>
</svg>
