<?xml version="1.0" encoding="utf-8"?>
<!-- Generator: Adobe Illustrator 23.0.1, SVG Export Plug-In . SVG Version: 6.00 Build 0)  -->
<svg version="1.1" id="Layer_1" xmlns="http://www.w3.org/2000/svg" xmlns:xlink="http://www.w3.org/1999/xlink" x="0px" y="0px"
	 viewBox="0 0 132 132" style="enable-background:new 0 0 132 132;" xml:space="preserve">
<style type="text/css">
	.st0{fill:#FF656B;}
</style>
<g>
	<path class="st0" d="M12,0h36c6.6,0,12,5.4,12,12v36c0,6.6-5.4,12-12,12H12C5.4,60,0,54.6,0,48V12C0,5.4,5.4,0,12,0z"/>
	<path class="st0" d="M12,72h36c6.6,0,12,5.4,12,12v36c0,6.6-5.4,12-12,12H12c-6.6,0-12-5.4-12-12V84C0,77.4,5.4,72,12,72z"/>
	<path class="st0" d="M84,0h36c6.6,0,12,5.4,12,12v36c0,6.6-5.4,12-12,12H84c-6.6,0-12-5.4-12-12V12C72,5.4,77.4,0,84,0z"/>
	<path class="st0" d="M78,108c3.3,0,6-2.7,6-6V78c0-3.3-2.7-6-6-6s-6,2.7-6,6v24C72,105.3,74.7,108,78,108z"/>
	<path class="st0" d="M126,84h-18v-6c0-3.3-2.7-6-6-6s-6,2.7-6,6v42H78c-3.3,0-6,2.7-6,6s2.7,6,6,6h24c3.3,0,6-2.7,6-6V96h18
		c3.3,0,6-2.7,6-6S129.3,84,126,84z"/>
	<path class="st0" d="M126,108c-3.3,0-6,2.7-6,6v12c0,3.3,2.7,6,6,6s6-2.7,6-6v-12C132,110.7,129.3,108,126,108z"/>
</g>
</svg>
