<?xml version="1.0" encoding="utf-8"?>
<!-- Generator: Adobe Illustrator 23.0.1, SVG Export Plug-In . SVG Version: 6.00 Build 0)  -->
<svg version="1.1" id="Clients_Logo" xmlns="http://www.w3.org/2000/svg" xmlns:xlink="http://www.w3.org/1999/xlink" x="0px"
	 y="0px" viewBox="0 0 400 400" style="enable-background:new 0 0 400 400;" xml:space="preserve">
<style type="text/css">
	.st0{fill:#101111;}
	.st1{fill-rule:evenodd;clip-rule:evenodd;fill:#101111;}
</style>
<g id="SumUp">
	<path class="st0" d="M127.4,145.1H32.8c-4.3,0-7.8,3.6-7.8,7.8v94c0,4.3,3.6,7.8,7.8,7.8h94.6c4.3,0,7.8-3.6,7.8-7.8v-94
		C135.3,148.5,131.7,145.1,127.4,145.1z M94.1,227.6c-9.6,9.6-24.9,10-35.1,1.2l-0.2-0.2c-0.5-0.5-0.7-1.6,0-2.3l34.2-34
		c0.7-0.5,1.6-0.5,2.3,0C104.3,202.7,103.9,218,94.1,227.6z M101.2,173.3l-34.2,34c-0.7,0.5-1.6,0.5-2.3,0
		c-8.9-10.2-8.5-25.5,1.1-35.1c9.6-9.6,24.9-10,35.1-1.2c0,0,0.2,0,0.2,0.2C101.9,171.7,101.9,172.7,101.2,173.3z"/>
	<path class="st1" d="M281.1,175.6H281c-4.3,0-8,1.8-10.7,4.5c-2.7-2.7-6.6-4.5-10.7-4.5h-0.2c-8.2,0-15,6.6-15,15v29
		c0.2,2.3,2,4.1,4.3,4.1c2.3,0,4.1-1.8,4.3-4.1v-29c0-3.6,2.8-6.4,6.4-6.4h0.2c3.6,0,6.2,2.7,6.4,6.2v29.2c0.2,2.1,1.8,4.1,4.1,4.1
		s4.1-1.8,4.3-4.1v-29.4c0.2-3.4,3-6.2,6.4-6.2h0.2c3.6,0,6.4,2.8,6.4,6.4v29.2c0.2,2.3,2,4.1,4.3,4.1c2.3,0,4.1-1.8,4.3-4.1v-29
		C296.1,182.4,289.3,175.6,281.1,175.6z M230.5,175.6c-2.3,0-4.1,1.8-4.3,4.1v29c0,3.6-2.8,6.4-6.6,6.4h-0.2c-3.6,0-6.6-2.8-6.6-6.4
		v-29.2c-0.2-2.3-2-4.1-4.3-4.1s-4.1,1.8-4.3,4.1v29c0,8.2,6.8,15,15.1,15h0.2c8.4,0,15.1-6.8,15.1-15v-28.9
		C234.8,177.4,232.9,175.6,230.5,175.6z M331.7,175.6c-2.3,0-4.1,1.8-4.3,4.1v29c0,3.6-2.8,6.4-6.6,6.4h-0.2c-3.6,0-6.6-2.8-6.6-6.4
		v-29.2c-0.2-2.3-2-4.1-4.3-4.1c-2.3,0-4.1,1.8-4.3,4.1v29c0,8.2,6.8,15,15.1,15h0.2c8.4,0,15.1-6.8,15.1-15v-28.9
		C335.8,177.4,334,175.6,331.7,175.6L331.7,175.6z"/>
	<path class="st0" d="M360,175.6h-0.2c-8.5,0-15.3,6.8-15.3,15.1v52.7c0,2.3,2,4.3,4.3,4.3c2.3,0,4.3-2,4.3-4.3v-21.9
		c1.6,1.4,4.3,2.1,6.8,2.1h0.2c8.5,0,15-7.3,15-15.7v-17.6C375,182,368.6,175.6,360,175.6L360,175.6z M366.8,208.4
		c0,4.6-3,6.6-6.6,6.6H360c-3.7,0-6.6-2-6.6-6.6v-17.6c0-3.6,3-6.6,6.6-6.6h0.2c3.7,0,6.6,2.8,6.6,6.6V208.4z"/>
	<path class="st1" d="M183.3,194.7c-4.8-2-7.8-3.2-7.8-6.1c0-2.3,1.8-4.5,5.9-4.5c2.5,0,4.6,1.1,6.2,3.2c1.1,1.2,2.1,2,3.4,2
		c2.5,0,4.5-2,4.5-4.3c0-0.9-0.2-1.8-0.7-2.3c-2.7-4.1-8.2-6.9-13.4-6.9c-7.1,0-14.4,4.5-14.4,13c0,8.7,7.1,11.6,13,13.7
		c4.6,1.8,8.7,3.4,8.7,7.1c0,2.8-2.7,5.7-7.7,5.7c-1.6,0-4.5-0.4-6.4-2.7c-1.1-1.2-2.3-1.8-3.4-1.8c-2.3,0-4.5,2-4.5,4.3
		c0,0.9,0.4,1.8,0.9,2.5c2.7,4.1,8.7,6.1,13.4,6.1c7.8,0,16.4-5,16.4-14.1C197.2,200,189.6,197,183.3,194.7z"/>
</g>
</svg>
