<?xml version="1.0" encoding="UTF-8"?><svg id="Clients_Logo" xmlns="http://www.w3.org/2000/svg" viewBox="0 0 400 400"><defs><style>.cls-1{fill:#101111;stroke:#1a1a1a;stroke-width:.34px;}</style></defs><g id="SunGod"><path class="cls-1" d="M243.64,175.72c.64,1.08,1.69,1.61,3.47,1.61,4.52,0,8.13-3.05,9.17-7.96,1.25-5.94-.74-11.21-4.68-14.73-3.82-3.41-9.45-4.98-16.38-4.98-17.37,0-32.18,12.38-38.6,35.88-2.07,7.57-2.71,14.27-2.2,20-1.9,3.23-3.59,5.1-5.98,6.89-1.93,1.44-3.19,1.38-3.96,.79-.59-.45-.81-1.43-.54-3.66,.87-7.17,4.42-16.64,5.04-22.33,.31-2.79-.82-4.93-4.68-4.93-6.52,0-10.93,4.13-18.81,18.07,1.47-5.67,2.96-10.88,3.68-13.26,.94-3.1-.54-4.25-4.13-4.25-3.92,0-5.91,1.54-7.4,6.56-1.22,4.08-3.62,14.43-4.26,17.29-.92,4.13-5.03,7.83-7.42,7.26-1.14-.27-1.5-1.49-1.37-3.78,.37-6.51,4.63-19.75,5.58-23.6,.59-2.42-.52-3.74-4.01-3.74-3.97,0-6.22,1.33-8.04,6.51-.8,2.28-1.82,6.03-2.7,9.11-1.47,5.09-2.51,9.34-3.76,11.82-1.42,2.8-3.04,3.91-4.25,3.68-2.24-.42-2.33-3.7,.13-13.15,1.43-5.5,3.46-11.84,4.05-14.23,.59-2.4-.46-3.74-4.05-3.74-4.48,0-6.36,1.95-8,6.52-1.44,4.03-3.33,10.66-4.42,16.2-1.27,6.5-1.3,11.21,.11,14.46,1.41,3.25,4.19,4.85,7.55,4.85,3.19,0,7.18-.89,11.56-6.83,.73,3.37,2.87,6.83,7.49,6.83,3.64,0,7.55-2.18,10.87-6.64,.28,4.46,2.67,6.04,5.54,6.04,2.04,0,3.61-.85,4.59-3.5,.73-2,1.76-4.4,2.86-6.7,2.79-5.84,6.61-11.91,10.13-16.38-3.43,9.83-4.21,17.46-3.16,21.44,.92,3.51,3.46,5.75,7.54,5.75,3.6,0,7.71-2.09,11.78-5.91,1.53-1.43,3.03-3.04,4.36-4.78,3.64,9.72,11.79,14.99,22.19,14.99,5.67,0,11.04-1.47,15.73-5.69-2.72,11.01-5.12,20.93-6.83,27.84-.63,2.54,.71,4.32,4.51,4.32,5.64,0,7.14-3.22,7.92-6.34,1.5-6.03,9.24-37.69,12.27-49.79,.43-1.73,.21-2.66-.44-3.43-.62-.74-1.92-1.16-3.68-1.16-4.99,0-7.27,2.25-8.72,6.18-.11,.29-.57,1.4-.67,1.7-3.93,11.02-11.31,15.67-17.89,15.67-11.61,0-15.92-12.14-11.18-30.62,4.25-16.56,13.74-28.03,25.48-28.03,7.08,0,11.08,4.75,8.85,11.54-.7,2.09-.83,3.32-.21,4.35Z"/><path class="cls-1" d="M330.34,212.56c-2.4,2.15-3.99,2.09-4.82,1.58-1.79-1.1-.71-6.51,1.23-14.51,3.39-13.96,8.19-34.11,12.45-50.65,.45-1.73,.38-2.72-.24-3.46-.71-.84-1.97-1.18-3.97-1.18-2.43,0-4.01,.54-5.34,1.88-1.14,1.14-1.98,2.89-2.61,5.43-2.11,8.43-6.2,24.99-8.45,34.14-2.15-2.6-5.33-3.83-8.89-3.83-1.36,0-2.73,.21-4.08,.66-.08,.02-.17,.05-.24,.07-.09,.03-.18,.07-.27,.1-.06,.02-.13,.05-.19,.07-6.47,2.53-10.91,6.62-17.07,7.45-1.93-5.35-6.29-8.33-12.43-8.33-10.53,0-18.28,8.02-20.7,21.46-2.42,13.43,3.08,21.45,12.97,21.45,10.54,0,18.28-8.03,20.7-21.45,.36-1.97,.54-3.82,.57-5.55,1.66-.4,3.3-.91,4.91-1.52-.7,1.97-1.27,4.12-1.75,6.7-2.76,14.68,3.89,21.83,11.59,21.83,3.75,0,8.24-1.74,11.46-6.27,1.14,4.45,4.02,6.21,7.47,6.21,3.79,0,7.11-1.87,9.42-4.08,2.91-2.78,4.53-6.18,2.95-8.08-1-1.21-2.85-1.72-4.66-.1Zm-52.98-9.47c-1.42,7.18-4.47,11.28-7.96,11.28-3.28,0-5.03-4.09-3.61-11.28,1.17-5.93,3.46-9.75,6.18-10.91,.3,2.64,2.17,5.12,5.88,6.12,.01,1.39-.15,2.99-.5,4.78Zm37.33-.01c-1.4,7.06-4.42,11.3-7.99,11.3s-4.95-4.34-3.57-11.3c1.42-7.19,4.48-11.29,7.97-11.29,3.28,0,5.02,4.1,3.6,11.29Z"/><path class="cls-1" d="M90.08,149.27c-14,0-23.52,7.3-26.64,16.14-3.19,9.04-.55,16.42,5.55,21.07,7.77,5.92,17.61,8.18,24.07,12.54,4.07,2.74,6.23,6.84,4.44,12.13-1.64,4.83-7.42,8.81-17.16,8.81-13.77,0-20.08-8.3-15.58-16.98,.88-1.69,1.13-3.22,.49-4.36-.7-1.26-2.14-1.76-3.75-1.76-5.24,0-9.42,3.8-10.48,9.77-1.98,11.17,8.18,23.24,29.73,23.24,13.95,0,25.87-4.94,29.43-17.29,3.1-10.74-.77-18.08-6.83-22.47-7.76-5.63-17.58-7.85-23.73-12.01-3.95-2.68-5.81-6.26-4.07-10.88,1.78-4.76,7.34-8.04,13.88-8.04,9.09,0,13.81,5.32,11.61,11.38-.81,2.23-1.13,3.52-.68,4.59,.44,1.07,1.48,2.01,3.58,2.01,4.11,0,7.81-2.52,9.1-7.17,3.17-11.37-7.39-20.72-22.97-20.72Z"/><path class="cls-1" d="M345.11,213.22h0c-1.61,0-3.13,.65-4.29,1.82s-1.8,2.71-1.78,4.31c.03,3.12,2.53,5.57,5.69,5.57h0c1.64,0,3.17-.64,4.31-1.8,1.14-1.15,1.76-2.68,1.74-4.3-.03-3.14-2.52-5.6-5.67-5.6Z"/></g></svg>